<mxfile host="app.diagrams.net" agent="Mozilla/5.0 (X11; Linux x86_64) AppleWebKit/537.36 (KHTML, like Gecko) Chrome/130.0.0.0 Safari/537.36" version="26.2.14">
  <diagram name="PÃ¡gina-1" id="JXPyLHuDdDuHZDX13k7h">
    <mxGraphModel dx="2048" dy="1462" grid="1" gridSize="10" guides="1" tooltips="1" connect="1" arrows="1" fold="1" page="1" pageScale="1" pageWidth="827" pageHeight="1169" math="0" shadow="0">
      <root>
        <mxCell id="0" />
        <mxCell id="1" parent="0" />
        <mxCell id="_2NTkBsCXPf4NS_J_TxI-14" value="" style="shape=image;verticalLabelPosition=bottom;labelBackgroundColor=default;verticalAlign=top;aspect=fixed;imageAspect=0;image=data:image/png,iVBORw0KGgoAAAANSUhEUgAAAqAAAAGGCAIAAAArQ6QkAAAACXBIWXMAAA7EAAAOxAGVKw4bAAAgAElEQVR4nOzdd3gUxfsA8Hd3r6VcekJIDyEQAoQiTXqVXgSMIihFvlJEyg+UJr2INKXajYiKiqA0aQEjBKSGnkZJSL2US+7Sru3u/P44EgPkLoUkV/J+Hp7H825vdnZus+9O2RkqJLQTPM3LyysjIwMQQgghZLFoU2cAIYQQQrUPAzxCCCFkhTDAI4QQQlYIAzxCCCFkhTDAI4QQQlYIAzxCCCFkhTDAI4QQQlYIAzxCCCFkhQS1lVBc7JXaSgqh+tTiubmeEELICmANHiGEELJCtVaD18PKELIg2OyEELJiWINHCCGErBAGeIQQQsgKYYBHCCGErBAGeIRqkyuri4u9gr37CCGTwwCPUG3annbf1FlACCEAMwjwtGejLhP8vR1MnQ+EXpwrq2tfUmTqXCCEEIDpAzwl7dp86NywjiFVy4jIZ3z0K/2DqTrOVdVQji3fWr/75PkTV8/v+3HNqJb2L54tQbsFeyOXdRCaSzovhLLp2qX7z++MPj9j1MHRHYa51vIjmeYIq+8IIfNh6gBPlAfPr+7116ErvIkzUn3iTjOWTHE+t3js6N6j10Z5vL1heiuRqfNkRii3Fh1WBmv3/HGkz1cn12c4zBnUItTUZ1vdYggpX31nCDFhZhBCyIS1KkGvzss+9ZdQAGz+yfDIs0n66yHlNqnvnK750QVOIU3t7HXyc6uuRt/VgXPg5BMdm+sj6G+vDQAAXc7hEVEXZAavopRdy1HLl47r6iumiTYr5vCGVT9eySdAB077aXtwxNgFpzQAgrC5325z2j1w5WW+zfQDKwJu3ZeEBeWdi1IFdwsVR382Z/etQgK0e8fpS6eN7ehtx+Yn/P3z+o1H40sAaNfmzaV3Dh6LySoBiN23O0ISzIso0FIVp68FA+kACP36LV77v0FNJfI7x0/IKVA9KZ+wud9uD7i4n23RM9jLRXPnuxWb98WpoNrpAO3abuqSGeFd/KTarNsn9qz99OxjreHyqS1UkKdT3oMLkXk6DnTXbyXHtvELtaViiwgAAO3e9+O987tm/Th1yr4Ertb2aVrDCuQAkCSSAECgVj2sQH7I0c3UmTLIldVtT7v/fIdCjK39bJ9gucC0rT8IoVpgwjoVe/7qmi4Hlva9Eqd99iPaVyjbHLVt1PGISNsBC4PcaCD5yXt6HFja49KdYsWZNw8u7Xxgafd//jUc3QEo54EzpwRcXDGo58hu/edE5LQe3rOx8aOlxBlHli3ccje0eXbErA/+YsYO7SAEAPs+cz4YqNj7dr8h3V7ddKvF9KXhvjQAAE0zwHP66ESKbx3Z+fu9ImPx0UA6lOPAebM6p3z1er8xr62Jd23mXD6TNj7MtTXzXh/59tx/fGbNGeBJVz8dStp3/pJX2T/fGzKy9xs74trMXv2GD12D8qED5g/9+Eb4J2X/Lndra2usOBmaYnkeKMZOSAPPs0AxZX0YRFeck5mdKVOqraiWOy0nAwC+dPf60t2r7H/Nkyur+/5xfIXDBdqXFGFHA0LWwZT9ojzPagGEFbRk8glZiTIegM+6nFsULnVhIIcnnJYD4AkAz3KstvLAwGm1vK1nUKuQoqQ02bF1Hx6p7AtEo9bwHFFpVCoN0ajVApGYAYCiMx+Fn9Fvob4TdU0x2KcRA6nV71IwkA7tGeQPN7edT1VxkHbhr6vKXuUa+lVxN24oCYA68Uaiqp+nBw0yvprpMH5hLeHyxlMJShaUMYfOZI4JC5ZAWkl1y4dP3nJs8ZbqHjTl3673nvbKD3/Ofeptori8efLl6iZmzlxZXaBWDQBHHVwBYEP6I/3/mi0K4IHYZpJ/SPnKuiuri068geMEEbIO5jnwiRDyJIDyhFAUVZPRa0R5auumgBkjZq8d7+PlBGkXdi7euP/Bc40FlRP49Htn8bSeQfZACAgdXOlTNciN4XQomqZ4vvR+geO48rcuhHvyge7ilv6ja5YOIxSUNjQAcBxHCQQM1GL5GEVSY6/OStXF8Y3G1nLK5oQh5JuUBACIsbXnanS21jO5QDjRP0T/4pn3TZQjhFDtM88AXzu0qdE7l0TvBADGqc+yXcsmtDu08rIWOI4HfYwDAKGQeSamPoNy7Dnvo66ZH733/gUFD4L2C77faKP/hOc5oBl9OpRdm2GTgx99f+BekYH0DaZDeJ7QdGnjOMMwxuND9dPhWJa2Yf57n7AsZ6x8DKAD5g+eNsHuv1Z8bfq+PhdulhjMKccTAU3zasUtNVA2tACIsXK2aMMK5CHqEgCY7RNs6rxUFcZyhKyeCfvgKYYWiBiBiKIAaBEjEJVGSyMIq1GLXfzEQhEjENFGQyHtOyniwDeTg+xoAEYoFtI8yxEA4LPuxhaGDR0S6ii09esxqrt9wt1kY8O8KIFQQDEiAQOUuPFLfdo6PCkyXp6QUNh6yNB2jWxt3ULHzZw8KIDREsPpG0xH9jAZ2vTr5iOhxV5dXnnJoZIKYHXT4VJux0Kn4f2DHUUSj7Yj+no+uH1fbaR8DOGTtxxb3O63hWX/OhuL7gDkoUzh2rRpP2cBw9i0bxMQWpQXV/LfDmx7Ldz904LORnvxLYa+u32RdxOMmggh82G6GjztP/e/GmGLX0YPACLf+/eWrXJjX9LlRH+RO37FsDX2NKUzXoPk0/7c/Ue7DzdGTrNliCb77ulPVt7QAQBoLu9cv2fJ+9uPT5VqZDF/blx9OJc3fKdDFP9s39Jm5cKI6DXa7HuRx5MVpa3gmiufr49Y/N7GA5OcQZF47qclX93RGk4fDKVDlCc/29lu7Yzfo+bJbx8//kBhvHffYH4MpUMKz2zZELRk+pfH50l12beP71jxSxpvrHxqCcmNu7bC4aVZY0YsE/LZWanbTsTe++/QGL+2nQPIoXSz7qaummd63xFCyExQIc+t4O7l5ZWRUe0BwPrJt3E9eFQVlNOgHX9NeDxz0qabrAmzUSsn7U/Jse1LimJs7ccHhNZuyiZhuTlHCD3DuqceQWaKaRLURBN3I9GU0b1WlM1Na0G97wihBsJqB9ldvGdVT2HVm64tO9fDXtiYXUP61MN+6pz+kfEYW3vr6H3HRfAQsiZWG+DrJ1ChhsyKq+8jlblHHVwt4pE/hJAhVhvgEapdflpNulBUFvNcWV3E43iwouo7AHRv1u6blIQQdcmG9EeT5LKpfs2t5tBqwNBsvoAT+iILgQEeocoxhHydEg9A7Xb3OuHgMqggb0P6IwC4L7axpuq7XCAcG9hyWIF8Q/qjEHVJxOP4yU9Pdddw6G/ggjWqCj9tX1IUnXijwo9wfCIyHxjgEaqct04LQPlp1RvSH+lDOwDES2ytr47LUdQhR7doO0d9eNuedr/80wENx/a0+8Ea1X2xzfO3OEZq9giZFQzwCFUuRSQeEtR6WIF8Wk5GoFadJJJ86e5lxb3UcoFwsn9IQ56XXn/gFTZgyAXChnnTgywOBniEqkRftTXnFWBrl5W1TNQMFgKyaPgcPEKoAkwFyzwihCwJBniEUAWGFcgBIEkkMXVGTMmVrc3pmxGqZxjgEULPcmV1+rGEX7p7mTovphFjaw8A0Yk3RipzsTEDWSjsg0cIPfHM+PB4iW2DXUFntk9w2ZQAZc9NAIDVj69E1gQDPEINSNUf8dLP5dJgw1jZlAD65ybK3g8sfVQSIz0yfxjgEWooXFnd94/jmxqYvEUP52gr8/xzEwwhZSFfH+lxvj9kzqy8D17Ub9nl65E3YyKv/zapOfPkTcpx4M5LkTdjIm9e2TUlwMpLoOaEPoMXf3b8/PFjC1rVx20g7fHm18cunf5y86RWjlgjqjMUwAOxzeuBLR+JJQ/ENh1DXmoR2qn8v/EBoRiuDNGH/CFNw1q16LjIuwkAhKhLsJ8emS2Thzfas1GXCf7eDnW2AzZxz2sd+r8U/n0C9+Qdojw5q0v/tj03RGnrbK+Wz7735EUvp21+bdTwzXfrY1VXPvvn/40cOPucyzuz3wxmKt8eVZ9cIJzoH/KZh88XKQlNNGqOoux4rvKvoefoI333Zu3iJbYAsCH90e9J93DIPTI3pm6ip6Rdmw+d63g9MTX9Cl/55iKf8WdDsyafjryPt8t1ixJL7YU5sXHZmrKfhbJ5udNL77dq5CfmsmSp30XdPJZXg+hABXUa8ENnp7ITT/v46ojDSfkAAMAqHyVnsX0ZjO91pmeRcmVmkoiQf+yd5vsEFdNY1jWHU/cjM2fqAE+UB8+vPkmzxVWI7qgekSJFAe/o4EhBhv4NqlHLjquCVZv/OHKuSPxy164rBobc//VeYrV/N/LoamSf6xQASFyD1gwOlN2VKcs+pN29vITZV2QWfzaY4YojFMC87NSpuZkA8IOL5yeefhZfymYAp+5H5syEAV7Qq/OyT/0lFACbfzI88mySvlJOuU3qO6drfnSBU0hTO3ud/Nyqq9F3deAcOPlEx+YiAAD47bUBAKDLOTwi6oKsrqvytM+k7z/vFnuwoFmXpt5Outu/rVx58G4xATpw2k/bgyPGLjilARCEzf12m9PugSsv822mH1gRcOu+JCwo71yUKrhbqDj6szm7bxUSoJzbTFk8I7yDu1inuHvs23W7LmZyoP/u9oCL+9kWPYO9XDR3vluxeV+cCgBo13ZTl8wI7+In1WbdPrFn7adnH2sBgLJrOWr50nFdfcU00WbFHN6w6scr+bVfCnxhYZGdgwMN8KSa7gRFf15KiMzT8qA9dzctLcSlmQgS1cZTqQAhvJYDiWvTlYMC0s+d25yk+i/QMI29PAtlGUXPHg7t3vfjvfO7Zv04dcq+BGxUrj4Jz2/MeDigIJ+lqLWe/r86e5g6R1al/NT9DCE4rh6ZCRMGePb81TVdroGd74Sjz663SfsKZZOjTspor2m9py8Mip8Yn5OfvKdHCiXyfuNESPb/zp59SAAIr62nhnrG1z5p0rsRMmHT6V9uXRR+5e2IVCO1H0qccWTZl6eX7JmQPWvmB32+2zu0w9e3/tbZ95m/dJRq58SB57JtW87csXpN+ON396Xr07HxYa69M2+XUtzyvW1fzRnw98zDMiLtO3/Jq2zEe0POpEhaz/j0o9VvJE7+IY2nnAfOnBJw8cNBu+KKhV7DP5g7vGfja4cyDOaHDpg/eNoEu/8GW2jT9/W5cLPE+BHTYu+mXoLH/6aVRVOScDcmofQIXTxcPIuUj2o8hoF2mTK47UtEdkAqdWNU2WU74RXyPEGIr6f4aqqm/BERXXFOZnZmtlKNXTPV58Fqd6fcb6kuLmAEc32a/mtXdyNeTElMeDdWly4Um2TvcoEwSSQJ1KqHFcgbzoIFyMyZsome51ktgLCC0ad8QlaijAfgsy7nFoVLXRjI4Qmn5QB4AsCzHFtfoV2PS7h0TcYCsMmXbirC/RszYCzAE41aw3NEpVGpNESjVgtEYgaA92/biru0/qJMB6CMO3wmY1yH5pJ96fpAq4q7cUNJANSJNxJV/Tw9aJCBX1hLuLzxVIKSBWXMoTOZY8KCJZBWApxWy9t6BrUKKUpKkx1b9+ER43nnk7ccW7yl6sdq3/+zyEW9hUSVfuGz+SfSKzhOkUvQ0i4O/0RdiatxGy9fdOzs+Zt2jv06dP3c+d+3/sl6cr/BPTi882SvjX8e+4gCNmHPuPF77/MAAERxefPkyzXdW4MWqi7enXK/EatNEUlm+DZ7JLbOqWdbqYo3ZDziAcY2aaU1UQX6S3evDemPpuVkYIBHZsLUffAVI4Q8iR08IRRl8gYvQvjS/PCEgprlhxGKnIes29NdCwBACW3UMaSsWk24J+nrLm7pPxoAAASMUMBzpXVbjuMogYABAKI8tXVTwIwRs9eO9/FygrQLOxdv3P+g9p4HKIqc2yUSaLHPq8v3rgq/8dbexKeaxMUuQWtHhHBXz298pHmBmyzt44ysx5B1TePwRz/v0Oisa/qdCMLeXDQofdOIWYfTNdhD/OL6F+ZvTH9ow/PXbKXv+wYrGPP8e38hDCEzcjOm5WYICEmQ2LqyukyhyCQ5OerguiH9UflZcRAyLSv8g68vHMeDPuYCgFDIcBxnNOJxrFZ+ZPnEDdeq+NAZx7K0TekYZ4ZhCMvqo6A2NXrnkuidAMA49Vm2a9mEdodWXjYY4WvWRM9rsjLknFRq/9S9jNg1aN3wEPbquaX3Cmp6SyFo3To0NC/+t3StvjFGS5cbdUxYlqVK8nIwuteCqbmZ87JTaYA/nNxWNA7Umfw+uQ4EaVSfpD9qqS7mgPrGrfF2dx+rPEyEasaEz8FTDC0QMQIRRQHQIkYgoit/PIqwGrXYxU8sFDECEW3Sv2Q+625sYdjQIaGOQlu/HqO62yfcTTY2/ItLuXlP+PKw7v62NC1tMnbl1k3hfsZKn0u5HQudhvcPdhRJPNqO6Ov54PZ9NQDQvpMiDnwzOciOBmCEYiHNs0ZvLPjkLccWt/ttYdm/zpVGdwAAELs42+bL5f9FWolr04+Hh7DXotfGFwPDiJinnrASdnh/+77lvZ0r/U143sH73a4hnR0EEonjK60aO+TmPSrbCfc4KVnoG+j5fMHY9lq4+6cFnW2rkHMkJGRdRtL87FQA2OLhu8SrifWFPRpgklz2+6N7LdXFKSLJ2wEttnj4mvYwcf09ZG5MV4On/ef+V7Ns8cvoAUDke//eslVu7Eu6nOgvcsevGLbGnqZ0VamJ1iHN5Z3r9yx5f/vxqVKNLObPjasP5/JG7phI4dkt6wIXz/z29EIpr0j85/dNJ4x15AMpPLNlQ9CS6V8enyfVZd8+vmPFL2k8APBpf+7+o92HGyOn2TJEk3339Ccrb9TB/BqUUMCAnbuXsyBFzhIAoJuGNHtZakf3GdinDwAA8Mpvfzv1VY7+5oL2DOvUVHIls6DSZns+9uq/O3q0XzxulDutS01PWv13Ulbpl2g7DycbcHBxpAGeLhvGr23nAHIoHVs/K+XEsdtT73csKVTR9IfeQZFSZ1PnqPZ56zQfpz/qWFJIAH5x9tjYyE9F17CuEhd7Rf9CJhSdkrqccHC5ZWtfgwYkXH8PmSEq5LkHdr28vDIyMqqbkP7vxNwe/xX1W3Z+Yy8xBdyDH98c92QyO8px4I6TH3QXAbAJ28Pf/y4Z24MrQNm3GL9s7qTu/po/FoysdDI7mx4bTszVfvTm8vOaGu6P9njzq+/nBuXcPPb1yk+jM55uDKGcBu34a8LjmZM23azNWfXM86R9EU006s9TE/206iyBaKZfcKzEztQ5qn1jFDmLZCn2PJclEH3kFRht7/giqZUF+ApVcUUZV1anfw4+XmI7NrAlPiaHzISVB3hUP5hmE3/5NuTnkUv+yKuTxxsE7d87vMVp69B1kbXaYmNlJ+3LxQWfpT1w4Nh7Erv3/IKzBKYZa1Z33Fjdmsyk3oUKAnDM0XWNp39BLQ0bpAHCVEWDlXmvFOZ56mo4vuS+2AZnskNmBQM8aris6aR9PT/7I9ljASGnHZw/9ApS17TJ2mwNKshbnpnszLH5jGB144ATDi51vcfya8dVujGuwofMkLVdBeqCvZfN4IjO9l42Zv4aNUw0wGJZyorMZIaQr90az/EJtrLo7sCxm9Ifbk174MyxUVKnEUGt6yG6Q7m1455ZcK/Cf7gKHzJDjJu79zNvSaXSwsLC6iY0KycdAHY9l5ql8+zo2nlRixu7H3Re1KIoQ222rx8cSjd1UVkeKzhp7XhuW9qDkcpcHUUt92oS4drY1DmqZd2LlF+nJLZXFZXQzJrGAZsa+ZXgAjkIVQ020VdicETn80tvF2Wo7L1seqwLM9vXRRkqUxeV5bH0k7axTvt5amJzdUk+I5jtG3zNVmrqHNUmG57/ICvljfxsCuCqrXSJd5M0E01Di5CFwgCPGi6LPmnDVEW7Uu+7sbpHYskM3+YpIqsKfu1KijZkPPLTqjUU/ZmHzw+unvisC0LVhTPZIWR5hhTI16UnSQj/r53DHJ/gwsrniLIYQkJm56RNzpUxQO5J7BZ6N3koxiEmCNUEBniELMzMnPRZOekUwC/OHms9/a3pqesQdcmGjEfN1SUsRe128/7czYu1oqNDqJ5hgEfIYogJvzYjaZhSzgG10dP3BxdPU+eo1jBA3snNfC8nXUTIQ7HNYq8md2yscJYehOoTBniELIMrq9uZer+tqqiIZhb4BP1j72TqHNUaf616Q/qjtqoiHuAHF89PG/moKat60g8hk8AAj5C5aKYpSRRXvJ5OsEb1eUqit06TIRTP8As2tJnFoQDeyM/+ICvFhuczhOIlXoGX7RxMnSmErATeJiNkFroUF+x/dK99SdHzH/UsUvycFOut09yysQ8PDLWa6O6p036dkrA8M1nC8wed3EcGtcLojlAtwgCPkOlJCL8qM1lEyI7URG/dUwv2vJWXtTv1vj3P/eXgOjHAYqY6F5BKViUYoZQfenS3W5FSLhDO8g1e6hVYhDPYIFSrMMAjZHozcjL8tGoAcOHYz1MS7XgOABhClmcmL5E9pgnZ5e69wCdIYyE90y8XF2xPu29o+Lszx25Le/BJ+kMHjj3l4DI8qPVZa1zTFiGTwz54hEysubrkHXlm2f8Ga1Sb0x8u8m6yNfVh12KlmqI/8go85uhqwhxWi5dOszXtgRPHjlbkHHByf+bTvoX5qzKT3VhdIcOs9Qw4bDnHhZDFwQCPkCkxQFZnJjFPN2j3LlScuH/biWPlAuF7vsG3bOxNlb3qEhN+e+oDJ44FgCWylEt2Duml88va89wiWcpoRQ4FcNHOcalXoExobQvaImRWMMAjZEpv5mWHqYqff9+JY7MEojcDW2RY1ATsyzIft1Q/ORxbnluXkTTFP4QH6FRcsD4jyVunUdH0Zg/ffS6NKumiRwi9sFoO8PrJvRFCVdFYp52XnWroU1dO563TWlCAfy0/Z4wip/w7nYsL3pbLGuu0E/JkNMBNG/tF3k0eiySmyiFCDQrW4BEyDQpguSzZhje4ioqAkO2p918PbGkRC8mEqYqXyZKff//DrBQKQEdR2929v3FrzAFOPYtQPam1AG+hS3IhZCqDCvJ6FyqMb+PEsbtTE8cFhhaa9yNkrqxuW9p9YUWPxlEAKpqeENAiVoJTzyJUryzjqRuErIwDxy6VPa7KlkEa1da0B0xlj5WbEEPIlvSHnjqtoQ1seP7l4oL6zBJCCDDAI2QSH2SlurK6qmyppulMoUg/Lt08zctO61xZ/J6TnRasUdVPfhBCetgHj1B961hSOPbpwWgVeii22efscdjJzZzb5wcW5JV/iN8QISGfpD8MD2yJy78iVG8wwCNUr8SEX52RZGQDlqJOOrjsc/aIsZWab7s8AAAEaVTrjR5LeS3UJdNyM3a5e9dplhBCZTDAI1SvpuVkBGjVFX6ULhT/6uxx0MnNIiact+e5Han3bXmuitvnCoSurI4hhMNKPEL1AgM8QvUnWKN697kGbQLwj9Rpn7PHBXtHS3mKjAL4OP1RoIE7lfLuSez+ljpFSZ3iJHYGnwhECNUBDPAI1RMaYHXGU7PSygXC/U7u+53dLWg2G72puZn9C/MNfaqm6Qt2jlFSp3P2jtkCnI8WIdPAAI9QPXk9P7ut6sly71fsHH5x9oiUOusssL365eKCuRVNwJcpFP0tdY6yd7piJ7WUhe8QsmIY4BGqD5467fys1EKa+dPJ7Vdnj4diG1PnqIb0i8WVRW8CcNPWPsre6W+p8wOxjZmPCkSoQcEAj1B9GKnM/djT75iDq5q24Kpt2WJxRTRz3t4xSup03t4pn8HLCELmCP8yEaoPX7p5mToLtWBCXtZVO+mmRr7XbaX4RDtCZs7KAzyublcerheAXtC3ro1NnQWEUFVZeYBH5eHtjvXBmzaEkCENIsDjRRBDO0IINTQNIsCjMnivYzXwpg0hZBwGeISsSj0HfrxlRMhsWfATOwghhBAyBGvwCFmheqhYYx8BQmYOa/AIIYSQFcIAjxBCCFmhhhHgKYlXux4dfRrGwSJUmyjnll26NZVW+49H6DN48WfHzx8/tqAVdgQiZBINIuZN/zzi17UjQh3Kz6xJezbqMsHf26Gu9sl4dh4+YUgzB3OfzdNS8olqphZ+X7F3t3lf/7BvWV+/6qz7at978qKX0za/Nmr45rtszXeOEKo5Uwd4ymVQh/cjx3wcE/7J9aHD2tZNdkYo97w95oM9sVy5/Uq7Nh86N6xjSNX2KPIZH/1K/+CqXyVpl65vvztv9qCQOqi8UDZdu3T/+Z3R52eMOji6wzDXF9lFXebTkgm6LjsQExN5Myby5qXVQ+3rajeifssu7HsruPxJSPtM+uHwZ0Nsa2cHtfD7EtmpLa+/tu5qi/e3zWlnV9U/AUostRfmJMVla/ga7xkh9GJMfF1nHF+a4qf65uSKgyoeCK+rm4vB1vUnk9RPv0WUB8+vPkmzxXV0+eFzDs4ee5LRFutqO2XKrUWHlcGaLX8cOaMUtO348seDWjzadye2hsdR43xStk0dRElKBVf5ppaIvbT+jS6fUEzAa99+19zUmXkBtXQecrnXtq090uXLNwb/cPP3rKosCUuKFAW8o4MjBRkvtGeEUM2ZuuJGC4V8YWaJVlsuQNGSpu+8NOz1Rh5SXnEr5dS6mzcf8wDAhLX5v+3S2N94v55Ori5c0ndX9v+SrzWaOqP/z7/K8pckQa/Oyz71l1AAbP7J8MizSfoPKbdJfed0zY8ucAppamevk59bdTX6rg6cAyef6Nhc3zb522sDAECXc3hE1AWZwaucsPfaA58OsaUA2LjvXnvr56TavYeggjyd8h5ciMzTcaC7fis5to1fqC0VW0QAAGj3vh/vnd8168epU/YlVBJ7a5pPWhrm3+OdkJcCZL+8dsNwgKd9Jn3/ebfYgwXNujT1dtLd/m3lyoN3iwnQgdN+2h4cMXbBKQ2AIGzut9ucdg9ceZlvM/3AioBb9yVhQXnnolTB3ULF0bf55j8AACAASURBVJ/N2X2rkADl3GbK4hnhHdzFOsXdY9+u23UxkwP9d7cHXNzPtugZ7OWiufPdis374lQAQLu2m7pkRngXP6k26/aJPWs/PftYCwCUXctRy5eO6+orpok2K+bwhlU/Xsk3+CvynE7LAa3lnt+i4vwYOl4AcZNBS1ZNeSVYorh36lRul8HKrUPX37Aftf7k8o4iAIBe+69NBABdzK7h7/4hAwCgbELHfDZlVCcvyLzw84rSdODp37ey38n47yt8peuyt/J2TIzPefpnN/Q+6BL/vSAf/lKo8Pcs4390pQVYWFhk5+BAA1jpPSBC5s9kAV7YaMT+Lu2caKFUQK0bEcICcMX/zok8dZfY9Gk77lX+5HtHb6QIAmd0e3NVcNqUhFweAICS2NPXzn6xWyts2XrGl2EvRZ3713CgBYAn7YlPX5DY81fXdLkGdr4TjgY/sz3tK5RNjjopo72m9Z6+MCh+YnxOfvKeHimUyPuNEyHZ/zt79iEBILzW2E5151aO6byashu07NjrVSgIOmD+4GkT7P5rpdWm7+tz4WaJwS8wNMXyPFCMnYCU8DwLFFPWbkp0xTmZ2ZnZSnXltaxq5hMAGKeOgb2mNmvlqozZc+WzE/LCyqqFjK990qR3I2TCptO/3Loo/MrbEalG7iIoccaRZV+eXrJnQvasmR/0+W7v0A5f3/pbZ99n/tJRqp0TB57Ltm05c8fqNeGP392Xrk/Hxoe59s68XUpxy/e2fTVnwN8zD8uItO/8Ja+yEe8NOZMiaT3j049Wv5E4+Yc0nnIeOHNKwMUPB+2KKxZ6Df9g7vCeja8dyqj23RdlJD8VHS/lPHjujJeSt4W/G5Xt2GnuZ4Oo2wBA8g8v6/4XLeq76OSklP9N/vkhB4Rntby+00zQxLtg1uTXPrDpuGDX8sXhV94qLbe6/X2N45VyhSDIwYYCo6e/Hi32buolePxvGkZ3hEzHZAFel3N66ql/RM59vuxk/83pI5d4IESTTwBojzYucPnG9QQtB9oHh9LyRrt6SyC3BACAqPMf3NQSAG1iTrrKx9mDAqMB/olnNuF5VgsgJM9/k0/ISpTxAHzW5dyicKkLAzk84bQcAE8AeJZjq3BtA57VaQGEbFVaMgH45C3HFm+p0qblUP7teu9pr/zw59yn3iaKy5snX65iGtXLJ+X1bt/JvQsufB299Z8CVdXiIpdw6ZqMBWCTL91UhPs3ZsBYgCcatYbniEqjUmmIRq0WiMQMAO/fthV3af1FmQ5AGXf4TMa4Ds0l+9L1N0CquBs3lARAnXgjUdXP04MGGfiFtYTLG08lKFlQxhw6kzkmLFgCaSXAabW8rWdQq5CipDTZsXUfHqnSITyHMZKfio6XdvfxInf+OJ+q4kF1LfK6op8QAAB4VqsF0BEgnE6jfbqnmo3/+2xiIU8Kr5+4nDegXLm9+O9LO/b7acArT4ae+Cy4Hga89tqcw/svSit+P/q/jBHCQ+VLwNv3/yxyUW8hUaVf+Gz+iXTsgUfIdEzXRM+rclUqxkbLgk6hUmb9dyFghDTPlf4vR3iKFjBlXyqNyjrZ7wOOV3VXVR4bRwjhy3ZEUZVfzUyGpMZenZWqi+Mbja2vXarTlCUeHiE98mUPSxJSqnRbQAhfWp48oaoQHSrCCEXOQ9bt6a4FAKCENuoYUtbcQUpPFN3FLf1HAwCAgBEKeK604shxHCUQMABAlKe2bgqYMWL22vE+Xk6QdmHn4o37H1SptbnK+amV4wUAwrFPugY4ln+BdCrAK8+M+/1MBU3xht7/D0XRUMFd8TOKIud2iQRa7PPq8r2rwm+8tTcRK/EImYip++ArwOl4WlJ6yWQomvBsTS8RT65GIoBaH+tWa6rdRM/xREDTvFpxSw2UDS0AUkE/ce0jeX9d2Rbt1OqNkFe+Cxl47WFUxP07CdoaVNA4jgdB6T2bUMhwnPH8c6xWfmT5xA3XqviwFceytE3pLSHDMIR9cv5oU6N3LoneCQCMU59lu5ZNaHdo5eVyEZ56rq2nNvLDZ6ekw8De3XwvnctyaN+nnSN1t2rHYW5oR1cntrBAVaWTjddkZcg5qdTefO+REbJ+pn5M7nl89u086BTQLlgkkNgEDfdxeSBPV1f+tWfZ8lyAtlj/emmxbGFWyub0hz8kx/314PZrSrmIEYgoCoAWMQIRzTDG0wIgrEYtdvETC0WMQEQbv2hRjFAoFolEAgooRiQWiUUCxsg3+OQtxxa3+21h2b/OxqI7AHkoU7g2bdrPWcAwNu3bBIQW5cWV/HfRte21cPdPCzpX4SmrauYTAIAvUNz+6tKOkX+fjLXttrl965o8y8Vn3Y0tDBs6JNRRaOvXY1R3+4S7ycZu4LiUm/eELw/r7m9L09ImY1du3RTuZ+ys5VJux0Kn4f2DHUUSj7Yj+no+uH1fDQC076SIA99MDrKjARihWEjz7H83FpRj11XHjv7z5auBTydNiouLKM9mzRwlIpFYJKCp6ueHKI5v3X7Jd+qPJ/cfWNuJSysoHyCJqkTt5OXvIn7yQ1Sutn5fotIocnXPF7yh90EY3KWb6/2Y2KreKotdnG3z5XJsokfIdMywBq86e/OXoJeGfTF8jJRX3H7858r7uRVeJSQ878FqPVidO6vz0Gk9WJ0Hqy17bcf/d5F69XGK/oWaohf4vtz29dWXn9SYW/wyegAQ+d6/t2yVG8uTLif6i9zxK4atsacpnfEatiB03sFPJ3jr03/51wsTgc/Y+86ULbdqabYPkht3bYXDS7PGjFgm5LOzUrediL1Xrn/Dr23nAHKoCrdENc8nKS6M/+Fq/C+MoEbtIprLO9fvWfL+9uNTpRpZzJ8bVx/O5Y3caZLCs1vWBS6e+e3phVJekfjP75tOGOvIB1J4ZsuGoCXTvzw+T6rLvn18x4pf0ngA4NP+3P1Huw83Rk6zZYgm++7pT1be+C//FEV4juOfrZ2S3KgvI7qu3vbb27YMxT3Y9ebMrx9UMz8Ausdn1005uw4AQNBxUbdB9H970V07+MXtZSv+OmovoLR/r+8z/6yxezuoxd+XPX996/kKvlbx+7Rr+1kfjRQeXXU8u4qtRZRQwICdu5ezIEVexVEeCKFaRoU8t+qUl5dXRob5Pry6NiOprarIQ6eV8tVruS8RCyd7Bd+2qbNZS8wA5TRox18THs+ctOnmU3G6bOEvXL3bFChGKBBQtNC93fuffRR6dPrEPWk1q9mW/331v+nzP6ih92uK8nxl3vZFPeDc7g/Xn04u16VhfEeUfYvxy+ZO6u6v+WPBSJzMDiFTMMMafCWSxJIxipzqfivVwWVbG//bcmFdZMl8ME2Cmmji/kzEy6k5EbRecGjzuEYUr8lPjPpm9f6aDy03ye+rSb+0/d1v/n1QUK0balIU9+PCaT/WVaYQQpWzvBq8I8dGJd6UkGpcJK/ZSmf5BiuZ+ribuXiv4qeYurbsXA97N+T5Grx55hNVnfEafL6B8e61+PvWdlMBQqiWmbIG7+Vls25d2NKltzMyVNV6fSjb7fX87Krv6B3/EG19PfJmKQHSUvKJagZ/X4SQyUbRd+zoum5d2O7dD9atC6vu65s9qzc9eL1Fd4QQQshMmCzAz5zZdOnS21evypcuvV3d1yOXtI1xcTaePgfU8saB9XMsCCGEkLmxvD54V1Y3RpHztjzLlTP4lFYJzcz1aXre3hG7CfVwFL31qa9R9NXOAELITFjSKPqXSgrH5WcPKMgTEQIALEUJKhpJlC0QTfNrFi+ppRW1EbJAZbd0CKEG64UCvCur2552v31JUYWf7nL33unu/fz71W0hsOO5EUr5G3nZzTQlAMBRVKTUeZ+LR7BGtUiW8szGiWLbaX7NZEJR1dNHCCGErE/NAzxDyDcpCSFqg1NvvZeTXmGAr7pmmpI38rJHKOX6aemyBaLfnd33O7nr4/cdG/vZ2em25aa7uWjnOMe3aRFd6cyzCFktbDNHVdFaVTxMKf/KrbFcYOWzgzRkNQ/wwwrk+ujevVm7508RfQuhK6urwdkjJGRgQd4b+dntSwr1C4BcsnP4xdkjUurMlRsPX0gzB53cJuRl6f/3gJP7ysYBLA6YRwihyvyWdA8AWqmLxgeEmjovqK7UPMBPy8kAgEXeTSoM4TG29u1LiiIex0/2D6l6jPfWaV7Pzx6tyHVldQBQyDB/OLr/6uzxSCypcPufXBrpA/x2D58v3LxwymuEECqPIWRYgXxaTkagVg3PNfAY6mBF1qHmAV5/uhx1cK3w09k+wRGP44M1qu1p9yu9Q6QBuhcp3szL7l6kZIAAQKzEbp+Lx1EHVzVt7EG+ZJHkjNT5lIPLYceKs6GHA44QQg0QQ8iPyXFtVRjFG6gXHUXPGWgSlwuEk/1DohNvVHqH6K3TfJ8c76PTAICaoo84uu5z9qj6kjBzfZqWNctjIK8UFpGVwR+0Ug15UMKwArk+ui/ybnLUwdXQ5RpZqxcN8HGxVwz9/VSxZT5TKCYUpIgkvzh7HHRyq+6M8djpjhBCFSrrSD3k6GbqvCATqHmA3+Xu/V5O+ovngAeY6N9CJhTVVg96Q75hR7VL1G/Z+Y29xBRwD358c9z3CUbXU6McB+44+UF3EQCbsD38/e+Sa7xonMUzk3LD5g3jHanI6tU8wO808Jh7DWTiY+vIXLGJeyaM33v/2aDDeHYe0t814fDxxILSO1OiPDmry0mw7//ZiVfrO5fmB8vNfGDLfINlSTPZmRvKseWEhe9N6NHEBfITon79+JND94pesBlC0G5BxCabbYPXXDM4DW+9poMMoF26vv3uvKDTiacTr2ARVx2WGzJjxqduKy/G1n62T7D5TyFQh4vN6B91s17iTjOWTHE+t3js6N6j10Z5vL1heitsiGgo+JyDs8f2HLHjhaOUoFfnFd83dzXZok/1rNbKDaHaxBAyUplblVHheu1Lir5/HG/+Ma6uavCurC7icTwAxNhWdTx8baPsWo5avnRcV18xTbRZMYc3rPrxSj4BOnDaT9uDI8YuOKUBEITN/Xab0+6BKy/zbaYfWBFw674kLCjvXJQquFuoOPqzObtvFRKg3TtOXzptbEdvOzY/4e+f1288Gl8CQLs2by69c/BYTFYJQOy+3RGSYF5EgZaqOH0tGEgHQOjXb/Ha/w1qKpHfOX5CToFKn39B2Nxvtwdc3M+26Bns5aK5892KzfviVFDtdIB2bTd1yYzwLn5SbdbtE3vWfnr2sdZw+VRC+ErXZW/l7ZgYn1PDnlLaZ9L3n3eLPVjQrEtTbyfd7d9Wrjx4t7gmvwvl3GbK4hnhHdzFOsXdY9+u23UxkzNabrVTDsLeaw98OsSWAmDjvnvtrZ+TalQQlEDqRhXn6ACA8IQAUGKJVKIpUBrac4MsN9q978d753fN+nHqlH3GO/IRqjFXVlc2K2u8xHaqX3PjVXNXVvf943iL6Paoq5rD9rT7wRrVfbHNbJ/gOtpFJSjngTOnBFxcMajnyG7950TktB7es7Hxo6XEGUeWLdxyN7R5dsSsD/5ixg7tIAQA+z5zPhio2Pt2vyHdXt10q8X0peG+NAAATTPAc/qrDim+dWTn78Zb6A2kQzkOnDerc8pXr/cb89qaeNdmzuUzaePDXFsz7/WRb8/9x2fWnAGedPXToaR95y95lf3zvSEje7+xI67N7NVv+NA1Kp+K0QHzh358I/yTsn+Xu7WtbJ0fxtc+adO700aOWhrZaOKicJ+a/C6UfZ/5S0epfp44cEzf8K3xHeavCfcuS6eCcqu1ctCdWzmmc5chfVb+q61yIT1/TI6Nh+8bvuiHLv1eErECh/aLey04PXjCqw7GS6LBlRvRFedkZmfKlGrTTWLlpdOYbN91xvyrnvVpe9p9fXRf5N1kbGDLShve5QLhJP+QidWZw81U6qQGzxCib+io1jR2tY3Tanlbz6BWIUVJabJj6z48UtkXiEat4Tmi0qhUGqJRqwUiMQMARWc+Cj+j30J9J+qaYrBPIwZSq19tM5AO7RnkDze3nU9VcZB24a+ryl7lGvpVcTduKAmAOvFGoqqfpwcNMr6a6TB+YS3h8sZTCUoWlDGHzmSOCQuWQFpJNcuHduz304BXQvSXcJ8F18OA116bc3h/NJ+85djiLdUrCi7h0jUZC8AmX7qpCPdvbLw8K/5deP+2rbhL6y/KdADKuMNnMsZ1aC7Zl15iqNygdsoBAHhWpwUQsi8Sc4gidd+QXO9uPp3faeXQTNP4/L0D4y8mpeqMp9ngyo0oLm+efLnq29eiQK16UEHewII8d522W/P2JslDbcGnCYxwZXX6aFXhnOuGmH9o16uTAD+sQA4ASSKJKUuBKE9t3RQwY8TsteN9vJwg7cLOxRv3P6hBpUvg0++dxdN6BtkDISB0cKVP1SxDBtKhaJri+dLrNMdx5a9/hHvyge7ilv6ja5YOIxSUNjQAcBxHCQQMVLt8eOWZcb+fqYUmegAAQkozyvOEgpqN8WWEIuch6/Z01wIAUEIbdQwpq0FWUG6C2imH2kO0qjyN1N8x4/Sv0k4tGeV3lUR3wHKrB0006oEFeYMK8vRrVwJAQTVn5jArRh5m1s8mXs/5MR/PjKeLsbW3lJhdLbV/7rqyug3pjwDgS3evWk+8WrSp0TuXRO8EAMapz7Jdyya0O7TyshY4jgf9NQoAhELmmZj6DMqx57yPumZ+9N77FxQ8CNov+H6jjf4TnueAZvTpUHZthk0OfvT9gXtFBtI3mA7heUKXTcjLMIzxq3b10+FYlrZh/nufsCxnrHyqiQ6YP3jaBLv/Wme16fv6XLhpcJFBg6r3uwBwrFZ+ZPnEDdfYKqZft+VQbZSzz4hlXhmbI89esBNEdH/tzdyv9hbU4K6poZVbnQjSqPRxPVijeuYjmljwGhfGH2ZusDV7fSd603K/9YrGgSbMT92pnT54/RDEvx7cjou9Ep14AwDiJbYmnl2B9p0UceCbyUF2NAAjFAtpnuUIAPBZd2MLw4YOCXUU2vr1GNXdPuFusrHhO5RAKKAYkYABStz4pT5tS7tJeXlCQmHrIUPbNbK1dQsdN3PyoABGSwynbzAd2cNkaNOvm4+EFnt1eeUlh0qqZdVNh0u5HQudhvcPdhRJPNqO6Ov54PZ9tZHyqQRRaRS5unIFxidvOba43W8Ly/51rkl0r/7vwqXcvCd8eVh3f1ualjYZu3LrpnA/Y2dzrZUDxQiFYpFIJKCAYkRikVgkqOSmrGJEkfX3wvOHzqqJWn7mw+ijfxXWqE3EysvNttfC3T8t6FzZqI4aCtKo3stJP/LwztGHd97PSX8+ugOAACw4wCNDqKeb2bemPbDKcQm1U4O/G3f1mXdC1CXPv/lk4wzX6R5+dd4ewqf9ufuPdh9ujJxmyxBN9t3Tn6y8oQMA0FzeuX7Pkve3H58q1chi/ty4+nAub/hOhyj+2b6lzcqFEdFrtNn3Io8nK0ovw5orn6+PWPzexgOTnEGReO6nJV/d0RpOHwylQ5QnP9vZbu2M36PmyW8fP/5AYfwybzA/htIhhWe2bAhaMv3L4/Okuuzbx3es+CWNN1Y+xrHnr289X/lmNVC93wVI4dkt6wIXz/z29EIpr0j85/dNJ4wOjKitchCEzjv46YQn49Je/vXCROAz9r4zZcutKlaIy+VIl3VbqX/JpsrTqvv1UlZdboxf284B5FC62thG1RakUQ0qyBtUkNe0ooj+DEupwVMADCE4dXdVyAXCif4hPyXHuYIuWSTRUVSwRlXdtU8tAhXy3MSuXl5eGRkZ1Uqluk0998U2dVGU+mzgVLWotpjJlKsWp7bKjXIatOOvCY9nTtp0s9r3T/DcBaFpaVwPqkJcL8MB1Sa0A0NAQHgBIQIAAeEZAkJCBIQwQASk9B8QhhAhIQwhAih9QQgD5MnGhAie3l5Quo2wfFKl7wsJYaB0vwSMJ0UTwlFU6xYda1w+DY3+8Ls3awcA+rVPASBJJPnS3ctqFuapnQBfda6sbm/Gw8CigrqI8Q38fEXIygjav3d4i9PWoesia9Lr8+SCMDyo9eCCvIHVjOsWhwfgKKpNi45Vb3Bo4BfM8odf4Rx2VhDs63uAqFwgXNC+24bLUcEaVXTijborwYv3TPN0jaXr2rKzqbNg1gydV1huxtWs3NiYXUP6vOiuOYoqpmkFIzDWc1FZCixQLEVxFKWjKBYojqJYimIpYIF+8oKiOKBYitJRpZ+CfhuKg3JvGkzqqfefSgpKNy59v2x3T94s/ai6x9VgQ/vz5ALh+IBQhpBhBfJpORn6RXoCteoN6Y8myWWVTn1jtuq7Bq9PX5Py+PnbpRc/2xr4DSlCqLxnLgjOHNuzSNG3UNGjSGHDV6MDJaxFR53F1uGQIcbjhT7Y658Ii5fYjg1saYn1eNM84lnh7RJCCNWdfEZwyNHtkKObmPCdigv7FOb3KVJ46ip/so8Boqt+/RhZNI6iDjm6Rds5RifeCFGXDCuQH3J0M3Wmqs2UczjoS9ASSw0hZLk0FH3e3vG8veMagBB1Sd/C/L6FilB1saHtGUIwvlsrV1ZnpPldLhAu8m6yIf3RtJwMSwxVDWUVK4QQegYBiJPY7nL3HtOkZZ/gtqsaB5yzd3y+NZ62jAflUPXoF0Lbnnbf+Gb6CV0stJnZgmdhRAih2iITin5x9vjF2cOO57oWFfQtyu9dqHDiWMC5bqzUbJ9g/fqwxivxltj1XsYEAb5OR/BBA55/ESH04opp5rSD82kHZwZI25KiPoUKFhvorZFcINRPyL897f74gFBTZ6dOYBM9QghVgAPquq10cyPfQoapfGtkgfSrmVvxojtW1USPD8ghhBCqorKWeeOt9JYLa/AIIYQaKP1Qu4jH8Va52AwGeIQQQg3UbJ/g+2Ib/cyqI5W5zHNrC1l04DfBTHYIIYSQmXBldd+kJISon1rwIMbWfq5PcNdipX4yuxhbe0sciIcBHiGEUINmfFrVeImthU5Hb7pBdrTHm19GzA5Ii/5px5o9d5X4oClCCCFTeGZa1bLF5Sx9QTnT1uAFji1e//SrXlffmfF5otEloxFCCCFUHaYdZMcqHyVnsQw+ZYoQQgjVLhOPoqfdvbyE2emyaizdiBBCCKFKmTjAM429PAtlGUXYA48QQgjVJhMHeF4hzxO4+3qK8Xl8hBBCqBaZOLByDw7vPNlo3p/HYmIir+17KxjjPEIIIVQbTDwXvSDszUWD0jeNmHU4XYP98AghhOqffro6S3zS3TgTV5kJy7JUSV4ORneEEEIm4Mrqvn8cH/E43oVjTZ2XWmbqJvrHSclC30BPbJpHCCFU3/TRvalGRcAip7IxzrSRlbbzcLIBBxdHDPAIIYTqVVl0TxTbTg4IyWOsav10MPFUtV99Pzco5+bhr3+NtbaGEYQQQubM6qM7mHqqWoQQQqi+NYToDqZuokcIIYTqVQOJ7oABHiGEUMPRcKI7YIBHCCHUQDSo6A4Y4BFCCDUEDS26AwZ4hBBCViNEXVJhVGuA0R0wwCOEELIOYsJ/npq4KiPpmcDWMKM7YIBHCCFkHcLzczx12rGKnPIxvsFGdzD5YjMIIYTQi7Ph+Wm5T2ZwGavIAYAVXoHODTi6AwZ4hBBCVmB8XpZ+UTi9sYocMeFbqEsabHQHDPAIIYQsnZTn/ifPfObN4Uq5khE02OgO2AePEELI0k2UyxwqWuzVkWMTJLaKBhndAQM8Qgghi+bEsZPkMkOfDlfmPj+uvoFomEeNEELISkzNzbTjOSMbPDOuvuFogIeMEELISrixuvF5WZVu1jBjfEM7XoQQQtZjWm6GhPBV2bJ7sbKZuqSu82NWGujQA4QQQpausU77en52pZvlCoRfuHntd/bQUlQ95Mp8YIBHCCFkkWbmpAsJMbKBkhF87db4J+dGarohNldjgEcIIWR5/LTqVxW5hj4topkIV88fXD2LaKY+c2VWMMAjhBCyPLNy0hmooPqupum9Lo2+c23cYB9/L9PQjx8hhJDFaapRDVPKn3lTR1H7nBt97dY4VyA0Sa7MDQZ4hBBCFmZ2Tlr58XIcRR1wcv/czUsmFJksT+YHAzxCCCFL0lJdPKAgX/+aABxxdNvl7p0iEps2V2YIAzxCCCFLMjs7Tf/ipIPLDnfvh2Ib0+bHbGGARwghZDHalxT1LFL+Y++03cM7VmJn6uyYNQzwCCGELEbnkoI3A0Jv2NqbOiMWAAM8Qgghi/G5m5eps2AxGuLkPgghhJDVwwCPEEIIWaH6aKKPi71SD3tBCCHU0LQI7WTqLJgvrMEjhBBCVqj+BtnhfRZCCKHagm3DlcIaPEIIIWSFMMAjhBBCVggDPEIIIWSFMMAjhBBCVggDPEIIIWSFMMAjhBBCVggDPEIIIWSFMMAjhBBCVggDPKo+SuLVrkdHHzx5EELGUc4tu3RrKsWLhUlgsVsoStjZ22WIlKHqe8e0S7vpn0f8unZEqEO97xshZGnE3t3mff3DvmV9/USmzkrDY8oATzm3CVm8fdBvB4bv3fXypC62TM2Tort+OOyzNxzM6HaFaRT229TOPV7gmIyiRXYTm7rP9RJXba5hqn+rZr8Giv8rH9pueY+Qm31DbvYNuRzmYF/l/TK+4zYsH6Hc8/aYD/bEck/e82+y73qPWc0ph5EdYv5u1UUIAHT3Vf3v3hsSe29IbMxLw6XVOTRzRLVf2PvcKndhtb9ooeVQ4+Oto3TqREXnrSlRji3fWr/75PkTV8/v+3HNqJb2L34DLWi3YG/ksg4vfGQvkg6Rndry+mvrrrZ4f9ucdnZYKahfJgyJtp6T5/vxRy++8+aJRT+rO85tP6iRFf36ts4ObgXKFL6Okuc1ivej7w9PLNHV8PvF6y4kdI5KDH+k5qrxNUmn1yYGXt26/mSS+r83iZbXEl7LglbHEx2vIwDAX1x9tn37Ey+NTrxXnfStRVIFbgAAIABJREFUDpaD+arovDUhcacZS6Y4n1s8dnTv0WujPN7eML2V1dR4udxr29Ye4Ua8MdjDiq7xlqD+Fpt5Fu1s7yVWHo0uKNRA4cXYLRpnSg0AlMfQbtsH5i6eF5/EAVDCbgv6v51/ZdY3ch0lCB7W7r2xHp5iCrSqu3/d3vFrjhLEA1YMfL+9/j6l759vAgB/7+vTS46oCIBj62bT3wls7cawyvy/f7j14+USDuiQKX3n+OclS1z88mSX1Q7tQ5hruy/9dMfon7e0UdM53Zv3bmQj0hZeuHZt7U15MQCI/DZMbp74e+R3cgIgGTVyyODkkzNuqdr2GrorzIYGAPD6bVYYAJHdihpzLoc1UA62rns62t1NYZu7S3yE5G6qbHmKqggAKJt5nX0CchWsg10zW4FaIV8Rlx/LAdD267r7DBUAAIl9lDQhWcuXSyculWvmJvYWklspmStS1cXAvNqm6QpX/V9VYEwgAJDriY/+l6bjeMIBef6wDaQDAABMYLtQ2xs//qt86lv6C6VOB7yWZ0svlDzHazlgtOT5cmU83GeuCHm9s50tq0k483D1upS4EiOFD3atAlavDOruy1CEy7qesnbZ/ct5ALR05v6uzb6JnHucA6DaLui50zmu79Jsvm2Lw2ulNxKZtk01UWfZZj2cJf/cnblDXkiqvV+hv9dHG0KGNmPkt9KOyQFKN6ZcXP+3rMW4jhKRTnv3SMKqbVkZhoO3kXKgXV2nrQgd19VOqlXfPJa4alNGstbw8RpGOTlPWhr6di+pC9HGRyV9vD7pptJg+WgNl7+B46XaLui5OzD7F51T7+a2Luq8rz+6/dM9DqqdTu0dr4Hyr246FZ63pYSvdF32Vt6OifE5pffolF3LUcuXjuvqK6aJNivm8IZVP17JJ0AHTvtpe3DE2AWnNACCsLnfbnPaPXDlZb7N9AMrAm7dl4QF5Z2LUgV3CxVHfzZn961CArR7x+lLp43t6G3H5if8/fP6jUfjSwBo1+bNpXcOHovJKgGI3bc7QhLMiyjQUhWnrwUD6QAI/fotXvu/QU0l8jvHT8gpUOnzLwib++32gIv72RY9g71cNHe+W7F5X5wKqp0O0K7tpi6ZEd7FT6rNun1iz9pPzz7WGi6fUrrEfy/Ih78UKvw9S1v2Ju3e9+O987tm/Th1yr4EvAOuA6arwfOy7MupruHvN+vRUuog0Dy6JnuoJAAk51xSjLNv/xYMAFAOnn3aqqMi83QAlJPPhLfsY9adHPfG0bc+TMxr6duxEQVEE7nm6NixxzZfYJN+jQofe2Ts2KMfHVMRAMqu8TsL/DX7z02acPz9HYrWs9oPafzk7lGYmbJ12d2EEMfcH//dcJIa/IqbsbYnysZ30dAQ+8R/w7/6Y0xkbpOXw4ZJKQBgHB38SFFSAQEAoKWBTuzjfBUP/M3zx3rtPrTqkS7+0qneuw/02H1g7HlD0b10F0LHkpx3rzwaekNhF9BoQlmLOUX7UiWrY5KH/5v2j637HE8hDQB80YrohM5R95fnPhczKKF9cfbUK49G3C70bOL5ui0AcIduJ3aOSlyczScmJ78cldA5KnFauq6ShoUK0tG/L3W0K8pTaJ/emqhVsdeV6cWEzym8erO4oJKakLDv/LDB+Q/GdT/ZacjtG6EtVoyzM9aRQYmHzGkeGH29b5dTnXr++02288jelXTmUOLiw4uubLzt1CIrcfrcFPp1306iGuxXNPiDli8/jh/dPXLkCoVr89L+DUrYb2HbMaoHb/aJ7DHqTmzH1uvH1ahziRL2X9R2DJv8bv/TXUffi23bct14O6Ymxyvo9UG7yQ6Z/zfsdJehN046B22Z6yYxtr2BcjB0vAAAlMSXurLi39GDo2ZF2c39Px9Puvrp1NbxGir/6p8n1TtvKeeBM6cEXFwxqOfIbv3nROS0Ht6zsfGrJyXOOLJs4Za7oc2zI2Z98BczdmgHIQDY95nzwUDF3rf7Den26qZbLaYvDfelAQBomgGe00c5UnzryM7f7xUZy5KBdCjHgfNmdU756vV+Y15bE+/azLl8Jm18mGtr5r0+8u25//jMmjPAk65+OpS07/wlr7J/vjdkZO83dsS1mb36DR+6KuXDK+UKgdTBpnwVnuiKczKzM2VKtYmbT6yW6WrwwCl/X/Vv3qtNXpnW5H0P7t7hW9v3ZecTIIWyExdazh/g8dNdme3Lvi1SUr55TAAAOE7HC9yaOAcVF2Zmp+1elqpPhnC8lgOWAOF4rZYrC120r2szLvvzyyoWoDAx9aIsqFUwcySTBwCtmuc5VqPl1BrQajhGxBj7S7X38+tS/HDq3bw8AlSmPI04SwQAAGInB48CRQoLAECJpQE2Rf8qCADwPK+lbXwcSUp8oYqr0m0p0VyU61gAUJXcVLs3saFA/6dN+Nj8EiUAcJobBXx/GwENOh6A5QkLpIJ7BqL5V65jAdii4htaZ38bCkoIT4iGgA6AEKLhSZX6DCpKBwAAKIoC/rnKaHHOp9NzAADkD2fdqjRx3emFZ07rX6rzzl7RDvWzoaHYcDkRjYbYNnZoHapLSlEdWXXlUOW559Q8T1S8qoQjGk4joMV09fdL2zQNgBtbZCkqAqmyY5dD+uobTBn7dq3JxdXZmToApeLP0yXjOzqJfywx2hZQEca+TSu4tD49XsED5P4RWRLexlEMxSXVPV7GtnVLwbXdj29kcwD5P66OSfPRGG0GNVAOho4XAICo7+XGKAGAS7iuLBlg40mDjK9mOrV2vIbKv9rnSYXnLe3Y76cBr4ToLwg+C66HAa+9Nufw/mjCabW8rWdQq5CipDTZsXUfHqkseaJRa3iOqDQqlYZo1GqBSMwAQNGZj8LPPCm3O1HXFIN9GjGQWv2+PAPp0J5B/nBz2/lUFQdpF/66quxVrqFfFXfjhpIAqBNvJKr6eXrQIOOrmQ7jF9YSLm88laBkQRlz6EzmmLBgCaSVQKXlQwgP1NOnJlFc3jz5crUPHVWZCQM8ACnMP/PD9TM/gI1vwJxV7Sc/OrP1kg6Au3cyRbHW/2XXQmlvp7jT17P0wa4g/dtt9uOHhM4Lt2vkCLJLcZu2JT3WGk5dQAudfP/vi0Y6AABKaMPdJTXp/6H8XB3YvKR0fUXdUerNFR0tJACUj4sUFCkZBACAcXbw1RX+Ulwa+hhpoH3xA0XV/2r50m8SeOqPoPR9ciH+wYUqpMOVpsMTeJHeLgPpEEKAol6sG43yHRCy7P/Zu+/4KIr2AeDP7F7PXdqR3oFACDVBCE0RBAURKy+K8PMFGxZEUECkCCgiIqig4KuigKK+Fl5BQEBQ6UFKCCEJpJBGenJp1+92d35/XBICyV0KaRzP98OHz2XvbnZ2dm+fndmZ2Zd8u6tAoCBxlTL7HaZHLfvXJIS9Evza6u5B/hLILfp4/oUfU1vQt6GZ6yWEIVSoWQ/HUVp9oiQSiWTC+yPvtAAAMGLWfBZa1JWSSESUq7m+4DlKxISFFmwvYVnK1ewvS27ZH7mNrLfhcrC7vQAAtcutxy+OfKBl6bTa9jZc/q10nAiVf0755c+Gmugr//jwg9AXH5y9cmqgvzvknvj0zTU/pzs4/9gjCrznmTdn3tVNCZSC2FXN/NH8NBykQxiGCLXlz/N83ctxWlMBsp5cN+bRlqXDikVCbb2F53kiErEAQBstH0IYaOBOFWpLHRfgJd1DHu9l+G1PSSUF49Wrh5N6PxmmYE9V8gB8Vs6BzK73Ph4u8S36MdZcG2sKYi+tjb0EAKyb36x1Ax7ql73hrP1fMCdYy3I+nplw8bpKWhPuSRCAOoch6+8uKyrR2+rLLp5uXpWlmTwAMAHuipIKve0Idvd08yzPz6zJDOvmGgS6Q3Ya/a5P30bEAPAAQBjSiX8EVFulV4a4SwBa2LcPgLj5zVvhnf/GiRePWXggAxeO/EjeyFcsOYXr5xeuBwBWcs/bw1c8pf51SYkFKMeDWFQdpEViRuAcFVyz10upQAlTc7iIRLWXNdRqMe968/C7Z25yN1ErR+Q1lwasiFArtR2pdrbXbjo8T0Q1wyUlgZ53B5qPndIb7ZSP3XKwu70Na346rba99sq/mek0m+Xq8U8XHf8UAFj3UUs3Lp0WtWv5PxbgeQFsMQ4AxGL2hph6A+J219wlwwqWvPzKiQoBRNHztq6pPg4FgQeGtaVDXPo/MCM8Y+uOJJ2d9O2mQwWBMrXlz7KNDKRtfjo8xzHX9iPLUq76ss1O+dRg3NTunLbK2GnPbk6p4+7B87x84NQ+TwxVqcSMW3jo2H58ZoahOhZTw7H9JQFjg1Sx2XG1XXQCw9dsHzEpTEQAGDErYmjd5m+TkXf1VbpJWYmEsR2KQm5Zmth79DCljCEuoaGzVw2aENRo1ZO4DVuxd8+Rzx8Jqy0YarIK3j5dgsSMyiPg+QHqK2l5ORQAqNHKq73UgWJG6Rk0s797Qmp+cc2xy7gougiUEbMSlpEwxGH6AABENtpH5kaIu5tqmMxypZHfABEzRMoQEQAhjJQhEqbxOrWRE9zlEk+WSBkiqvNpHccTmayn2JZOY5V+PvN8siFq2FC3ptbhBb1VRxQ9e0pkUkZq2zMMI2YJK2EYAJm/1z3RkkYOQUb5zHdjtj7r6sIAsIxUTHieUgAQjIlJlv4Tg/q4MYoQv0fvEl2+qHV0P6S56xWM6ZkwYKxPkIzIAnzGDZJUbzOvO5/IDH/YN1RBWJVq8sohH01RNlqDb6AceF18IsQ85N/DjZH5qB++R5F6odLsYHvt4Q0Xk7g7Hg3u34WVqd2fXBq1cJzcUfnYKwd729vc8rRfbq20vXbKv7npNIIazRWl1joHFBM0fcuOzTO6uTAArFgqZgRbs4lQlJis7Tfh/kg3sSL4zodHKFMSsxwdh0QkFhFWImKBSP0GjhpQM7ZX0KSkaPvePyHKR6HoEjnlpRnjQlkLtZ++3XQKr2RB/3uGB8oYqf+Qewc2NltFc9PhcxKSYfDEMeFuEpn3gAdH+6YnpJkclE8NcfiQ4eq0uOQbqgaKkW9s+m5ejAJQm+i4GjyfmbZ2k/j5aSO2zBcLFVVndp356vS1na+7VJrFuV7+s6z2ClDIy/52t3rm2+OnKAi1GFP/SlifUFt9FxJ/u5yyIOrrn8Qs4U+t27fqCEd1+ZvXKl98dsQ3c8RCZdXpnReP5FJoLIQRQgWeF+ocmXzs6fOH7+2/7fkoMFSeSvxnUbxWAAAQzpw7f2hs/23PDaDGihMJscuT9LXZ4YpyfquMeevpxySEXo376/ETGt5u+gAA1JzFqr8c7hJCuJOZBd/pHOVQ5Oa1M9ozwLYdXUJjw0Awls04VXzR0Zfo2dzShN6++0eyIqB/J6XNLarOa2mR5usufhtGeCoI8NqSJ85qMhylYzq9Y3vOx3MXjklbfjDb7OiT1estKdi42WfVxntmuBDCV22YdOI/aQUfrfFcuXjk6dV8cWLenkxLI62ogu5/67OiFw8++rKIFfiii3nvLtFYAQD42PXxX7/Ve9NfESqz4eyOhGW/mgT7V6y0vJnrpZZ9a5OiV/fadbJvacLV39NqPk+th1bHh73V65uj/VW8JeXvzNV7dY12tGioHKyH1lwIf6vX13/1VVmN8XuSlnyn5x1trz3ckbXxWxf3Wr8vwhPMKUcy531carJfPmCvHOxtb3PL00G5tcr22iv/ZpebY9yxcx8eq7tAyN256deoBWsOzVSw1FycePD95eetAADmfz5dtW3RKxv2PasyF8btXPP2b6WOjsOKIxvW9V/+xpbj71iKkw7ty6q9j2c+/dmqLW++vGbHdA+oSD363aIvLlrspw/20qGVBz7+NGrli78cnqtJ2LevsfuEdvNjLx2q/XPd6m6LXvh831yVtThh3yfL/psrOCofAABGHT1ryUPiPSv2FV9/6mODB8SE0l15JkBtgkREDr5hkb+/f35+fiuu41LyaQDoVW9FjrLlPWH4hpGFry1Mz2+rkeSdBaNQbxsk/+F47u+3xjARRj3wxVXznwjI2bzgzdq5bhBCqCHE9965GxbeCUc3LVh1MOv6WybEfdwnv0/Lfmn6B/GOxxk1rAWR5XbToZ3s7GJUo8a4Xd53tsDZo/stSNCc2/jC9J3RMQGNjYdDCCFz3qkNz2+OTa+qXxtgu3brar60M7Ul0R01RSetwSOEUOdxMglHc7XEsN4xbZc4RpZGdc4aPEKoqZT+8jvf7XdscYIu3+hMrzu6XK/TpoEKoTbCdvEKuGGRSqXSarWtuI5ZJXkAsLHeihBCN8l3kDpmYa/zm9JjFvbS5Zuc5nX6rryOLlrU2WFkaRQ20SN0Cxu/Jabz1Llb8XVnq8GjTggjS6MwwCOEELr1YGRpVCd6gjpCCCGEWgsGeIQQQsgJYYBHCCGEnBAGeIQQQsgJYYBHCCGEnBAGeIQQQsgJYYBHCCGEnBAGeIQQQsgJYYBHCCGEnBAGeIQQQsgJtd/T5GzTCiKEEEKoHWANHiGEEHJC7VGDx4cBIIQQQu0Ma/AIIYSQE8IAjxBCCDkhDPAIIYSQE8IAjxBCCDkhDPAIIYSQE8IAjxBCCDmh9pvoBiHUbhzMK5UpkX3u5b/HVc0T0p5ZQgi1M6zBI3R7CbOYVudlJF46M6skr6PzghBqQySi3iw0/v7++fn5HZIbhFCbYil9oEozsyQ/zGICnIQKIaeGNXiEbiM8IbvcutzfvV9HZwQh1OYwwCOEEEJOCAM8Qggh5ISwFz1CCDmtG3pd1BenUM4ODNeIxO2cMdQOsAaP0E0hAEP0VTJB6OiMtISas3Z0FlAbUnPWXzKTVudl2IvuABBt0B1PPf9WQVb7ZQu1F6zBI9RCIkrHV5XN0BT0Mhke6Nb3ilTezhlQCryOYVv23TiFMtqg25CbNjU0snVzhToJNWfdkn053GwEgIUBXW+Y+aDuuwAwpbx4o1cA1uOdjBMGeAdTfCBUV4sHiakEflJ5yVNlhb5Wi22Jn9XSFgFeRKkXZ/XhLD5Wiw9n8bZWv/bmrD6cxQpkcMTAlqU8OzD8eOr5aIOudTOMOona+J0mlc8Iibghcqs569bsy93NxjSp/LXA7ruvXOyofKI25YQBHqG242e1PFVW+K/yEheBv2F5i9NU8XxtCPfhrN51YrknZ7V3F40CWFlWJggmpkk32uxd+LKU4pR2zmdDbpq96G5DANKl8hkhEbVLsPrufJw2wOMMHsiBFjTzRJr0T2sKx1WWsUDrv+vHmR18l72uIm71sVq8uOoXPpxFbv/+PUdIsUhcJJIUiSVFInGRWFIsuvbC2LTQ7ljipTNN/CT+pm4htrYZe9FdIxL/uya0b8m+DABxCmV7Zg+1D6cN8Ai1CgbgTl3FDE1hjL7Kwcf8rBaVwNsq3z5Wqw9n8a5pSPexWjw5rsHLAgCgAFqGLRZLikSSIrG4SCQprhPLNSJxa3XeuyE8s5Q2PbSjW5SDSnkFK3qgSrM6LwMA0qTy2YHh7Zgv1E4wwCPUMCkVJlZqpmsKu9V0RHJgYqXm4YpSe+/yhBSKJMU1IdwWxYtFYlu93NDSjnI3o7ZZHuvlTkzNWRuM8WrOujknJcJkAIDLMsWzwT2xfd4pYYBH6EbuPDelvHhqWVHTR5ExlOoYtuha2JbYXtuCukYk5gHvc6P2YxslsTknZVJY7xv6WDjuXY+ciXMFeCLzHzAIsBc9agDx6B0TaU6KTdc23OgtDhw/b97rvSSqBf8n/TtFSpvXNG4lZHDEwIZb4RFqd7ZREhEmw7/LCu/RltcfLuGg/x1yGh0+0Q3j6zNkWkiA680n5Bn1wmdbflz5YCtkCjkjacDwuV9+88PS0cGSBt4d1nPIe9/O8b/jDte/LjU3ugOAhFJPnDQGdRoakXhhQFcAmF90tX50j1MoMbrfDjq6Bk9Uw3pOmON2LvVq3um6J1XiOW7g1Hkh/p4sQ/XHntm3J97xKZcNmrL6rQfLP39qzv7f2zbH1xC33tPeeHnanV09oTzl8I/vvb8rSXeTVThR1LwtH8jXj3/n7M3FitZKpxYTGDLpgz5dXcFw5uK3b+eUC8Rj4tApfTO2vldosLfNRD508MBX+vgES/miwqtfH47fW8bb+WirIvJhMQNn9fYOkgglRblfH4nfo+EAgBb+se7xuCNzNyxe/2o5zLihmYeU+ne1xvT+/kJ+kEEfaTL4Wx31im+Qn9WCZ0zUeZx0cat9PbFb3/R2n4gJdbiODvC08n/H3j7AcPrr4zfrNvDpYOPmA8v+ZxSACtbGKlSywf/6d9iZNfMPZNqdkLHVSQe/uOhpj92vT5qXIoRNWfnO6heuPLb2YstHQ3dmxGN0t8B/Tn2wEe77oX9f/6vH2W4PP6zbN9t+dAfi03vQinDj2l93H9VJhw4btuy+iLQfk1LbfEJX0qXXHcvDzet+3f1npWjAoKHvjeuV8cPFZNt6+dKz61fuHvL5EwCfX/81ms2JzeMH796adIkHAHDnuQiTobdJH2k0RJr0IRZTo3cp/ayWRLlLG2wSQs2m5qxfZV+u/bPuVDY4+fztowMDvGhkzNKPQmQEgCs/MPnQX5l1YwUjFgvaAoPF0qSAwIZFRSrOb4+trJsEcen98FuLpwwLkjLUUhT32+oV20+XU2DCZn63IXzLpHl/mAFE/eZ8td59033L/xH6v7BjWeiFNFm/bmVHDxvDh0dKj3/86qYLWgqM16AXFs+cNCjAhStP+fv7VWv2XDYAMOqePVUX/7c3rsgAkPzDpi2ycEFCwEIaTt8CdtIBEAff8+bK58Z1l2ku7tuvIVDdZVvUb85XG0JP/sz1uivc39N88etla3+4ZIRmpwOMOurZRS9OHhKsshQl7N+28qO/si32y8cOShkJw7AgYilI3O9aEJiz9lim3tFOcQfdzlMph8osAliOJubmRnj2kEBqm1+AkW6+7mXpJw6VWXmwnruQldw/OFJBkmvbVqypsSc0E3vX+56g1epcXF0ZAB4AoIIVnXJxPeVSfe/IReAjTIZIkyHSpI80GrqZjfWHvTkeCo9Qu2Ep3ZyTEl4zUd2Kgsy6rfTRBt2W7MvYRH876MAAzx07886Qs+ASNG1PnRGYYp8Hfx4S5c6IVSLy7oMRHACvj3310B+Jjhq/icrNRVdWcV3tmXjc99LToScXjNt4SS/2nzh/zsS7/M7uyndwwUCk+buXfn5w0bZpxbNemj/q628n3PHlhb8tylGvzr+vYuNT9xwtVAx49bN3Fk++8O+tVwVgGBYE3tboTPUXdn96wZaKveTtpEPc7ps7Kybnk8dnHilRj1jw8YPMhWvfkQeyZ5+Zu7FS2vvl9V+8Ovbvl34rFJqZDlGNfn3RI9yWl+//M0fW98WPlrz9ROqMb3KFZpUPLTuQcnll9NyfoOLwpcwJAwYdO7ftkuP2dpqSGJdSU7Ke3p6+usoMR80bTOjr42dOc7nWKcSS98OoE/EGe8vtJsQyhBMEIKyLiBoEgQPCXrdPhEpNRb3DnpEGdPcXZcfm2tkoPcOeU6jOKVS2P2VUCDcZI016W8jvYTJIKL2ZyewQakUPVGlsQ+BsUbzu4wZqu9BjjL8ddGQTvSBwFgAxvS50W0sOPvvHEYnHqM8HKzcf3H1KAErN9iuW1QghIFyfEPAWi6Dw7dYnQpeZW7j33QW7G8sPNZvMAk+NZqPRTM0mk0giZQFA9+eSyX/aPmG6ePhsxfhAHxauNr+p2U46jG+3EIhff+yqkYfcE7+fqRxZpwuY8dL585UUwJR6PtV4j683A4VCM9Nhg/v1hn/W/JFSyUFl3K4/Cx7rFy6DXEPzyocW5+95Pn8PgHxw1PTHs37cWNX02+kSz26Lh7geOXz6kqNCE7LW7X1zXdOXO0ZCou7eFl254PsGhqbT67rQKcd8fGjh3WJqzDvx8ev785q2X02EuSh3uVjTIC+itJvZ2IKueR0IH9ngxGaW5APAwoCu9eO3RiSeERKBMf420dH34OsTjKVGIyu3cGCtMFYWNe2cSSkFcv1YTlr5x4cfhL744OyVUwP93SH3xKdvrvk5vQV1LFHgPc+8OfOubkqgFMSuauaP5qfhIB3CMESonauU5/m6lymUr37DenLdmEdblg4rFtU0NADwPE9EIhZaVj7Ew3/CS9Jz34jHbx3nr7LmfHNmx69VnMOvSD27rXwwgj9zbE2GuR0HkdGryWdmXbVeEnwm1XuPkLpjR3SH5gw5BIw08JG3vl0x+fz/fZva/J6AHCEpMsVNZLfDbPQK6OgsoNZnezjsHld1g+9ijL99dL4A3xJUW6VXhrhLAOp2GrdcPf7pouOfAgDrPmrpxqXTonYt/8cCPC+ALcYBgFjM3hBTb0Dc7pq7ZFjBkpdfOVEhgCh63tY11X1RBYEHhrWlQ1z6PzAjPGPrjiSdnfTtpkMFgTK1c4qzLOu4M1fz0+E5jpGz15ZTjuMdlY9djLz/GxHC5ljjhLHiXw58GBfy3Gfdg3fHZdiP8FJ1t3cnRnBnji5Oqmrs0qrVmuh5gYoYRjBVXDABkTMioNfvX8ZN7V4vy4K5KF/Dq1TK22bCD5zAzuk5mL4GY/xtogPHwROWEUlYkYQQAEbCiiQ10bL5+MzzyYaoYUPd6hzQTND0LTs2z+jmwgCwYqmYETieAoBQlJis7Tfh/kg3sSL4zodHKFMSsxzV2YhILCKsRMQCkfoNHDXAtbrIBE1Kirbv/ROifBSKLpFTXpoxLpS1UPvp202n8EoW9L9neKCMkfoPuXegayMhprnp8DkJyTB44phwN4nMe8CDo33TE9JMDsrH7nrVj0QPKbr4+wkLELDoecHIWQlxMAOWTN39vYkR3NnjKy/rgWUlrOMJWYWsdXvfjPrpjdp/MbYobm+5PfRKYYW6e/d7PEQsK4/uHxqpK7tUt6+/OHzIcHVa/e9JPT0U5RrNrdTKjlDL2WK8RiQONxuiOK4vAAAgAElEQVQXF2Z3dHZQm+i4GjwTMudazazXfx8dC1Tz7d/rPixtyVhp0+kd23M+nrtwTNryg9WLhNydm36NWrDm0EwFS83FiQffX37eCgBg/ufTVdsWvbJh37Mqc2HczjVv/1Yq2L/SoRVHNqzrv/yNLcffsRQnHdqXVVETAsynP1u15c2X1+yY7gEVqUe/W/SFbYxcw+mDvXRo5YGPP41a+eIvh+dqEvbtS69wHGLs5sdeOlT757rV3Ra98Pm+uSprccK+T5b9N1dwVD4NYrv1ePjeij2vlpgoXPlfRszr98yRQMXPZ67a/QrTPaLHUJULM+q+UaNsO6Tyq5/++KKkrdvpaemls8tcB8567MGlYqG46Or6/clJtUXKqKNnLXlIvGdFva8RsYgFFy9/D1GOhsMJ6VDnRAC8OEuxqKGpmhCqh0TUa6nz9/fPz8/vkNzcDEY98MVV858IyOnS9W7AFkh0I+J779wNC++Eo5sWrDq4L/40XH+QEGWvqUvnTB8RYv513kNrEx33LECo3YgojTQZBhq0Aw3aaIOWI+SuHlGOv2LrQengHMhSWvdRcthE76yc4x48AICgObfxhek7o2MOdXROUOdkzju14fnNsekNDwCgukvb35i5vb0zhVAD5IIwwKizBfX+Rp1cuNauVyyS2HtG3A3wUXLIeQI8AAA15Z07Ynt5Mumfjs3LLWpY75iOzkIboeVJJ493dCYQsseT56INWltQ72UyiGqG/VKATIksTqE6q1DFKVQ5EmmjSdkeJbchN63uCHhbrX1mSb6tjz3go+RuA84V4OvwwKO2RS51dAYQ6vxCLKbnSguW+ofdZHeNIIs52qi9Q6+NNmrDzNemQ+YJSZS7nFOozslVcQplc2vYtkfJRRt09mY7wNlqbxNOG+ARQqjVyQRhZmn+M5oCMaWfefnniRuvT9fFAPQwGaIN2jsM2miDzoe7NnzUyDAX5Mo4heqcQhkvVxocjzpxSCMSb/QKeLkk74blmRLZ517+WGu/fThhgMfudQihVkcARmvLFxXm1D5pcKBBl+fWeICXUNq3+oa6LsqoVfHXOoGUs6I4hSpOoTyrUCXLXLjWi7ufegV8irMY3facMMAjhFDrCrGYFhdm36mrrLtwoEH7m1vDs8WpBD7KoB1o0A00aPsY9bXTGFOAPLH0nEJpe7RBhlSOYzJR23GeAI9zayOEGtXcFj6ZIDxfmv+spuCGp2YAwECDtu6f3pzFFtEHGrThpmvPGxQAUqWK2qBeKMZR7KiddECAv0XH2SOEbiv12+Rv0M1s7G/Qh1uqB6kHWsy1LewWQhLkytpeclWs81Sl0C3E2Q47vAGPEGpQsxr5gi2mxYU5d+kqHH/sv1lJta91DBtfU02/KHcxkQ6cCBwhAOcL8AghdDNkgvC8Jv/Z0gba5OszMMxRpbttkHqqTM4D9k5HnQgGeIQQAmhCm3x9aVLF3MDubZorhFoMAzxCCEGwxby4MLvRNvkb9DHpZYJgYrA1HnVGGOARQrc1GRWeKy14tjRf0oQ2+RuwlPYz6k67uLZFxhC6SRjgEUK3r1HaisWF2QFNbpOvb6ABAzzqpDDAo86HyPwHDAooOXEmV2j8w8g5EY/eMZHmpNh0bZseBLEurtNCe7nznDvPefCcO8+5c5wHb7Utcec5D45z5zml0OAzCAEABhq19t5CqGNhgEcNIuIYf5W6qnKflm/fqbYYz6jnVy2YGpS7ef7JM+26ZtS5SAOGz33zjdl/fTL//b9yLI1/vmVMDFPISBqdfEZMqVtNyK+N+u4858FbRZQSAJyQDnVCztw3hHj0j3hzw7ifdkz8duPQ6UMULX92AzDDFjzw8ROunai0WJ9+Pz0bc+dNbJNDjMTl39295vhLm3YFSMb06fFjmPRa+TAub90ZET86In50xD/9XJVNXi8bNGX1Ww9WbnvqsfnbkqvrTGxI1x/O3TmrJ3F96I64v/sMqX4ClvihjeOSk+6v/XdhW6gfw4xYMSbRtiRu4ERVk9fbVhrJj2Rs1Jkd4T2afVyR6DfuPrrCyzmeBWZn/9LCP9Y9/q93z/R6Zf2rUS4dPfrMSkipSJwulZ9VqA6pPH728Pqyi98HPkGL/LsuCOiG0R11Tk5cg1f4zng9WNh+8pkjRtc7+iyaE13y6om9Rc7yU1R4uHapKs1pq9ZLwVzxyvEqkSBYW/h9/bsnUt4HEhIcvLUZtydlg//177Aza+YfyDRdW0gtgoUKFg4sVoFaBeu1XShc+PD4jO0G2wLKU4tAi97+K3oVsKFdv9nu1rKstyrhZOfKT2dkf/8CX3p2/crdQz5/Yvw38b84zW8XofbivAGe8VD6Syv3HK/SmkF7Mnmd2YOYAIB4Txi+4b7SN+dezuQBiHj4vDFPlZ+etVljJaLwB6JenuTtKyVgMSb+nvDJjyWVIB277L5Xom1VrNE7nwQAIenLg4t2GymAW98eLzwT1rcLy1WW//3Nhe3/GHhgIp4e/WpIWZbMM7is8B+Ta3QEe3bTqe8uWh2dnVQ+3V8d0fNuH7nEoj1x9uzKeI0eACTBq2f0TP3l0NcaCiB7+KH7x2cdePGCccDICRv7yRkAAP+fZvUDoIUXDj92tISzUw4K9bZBLok5XE8vWaCYJl4tfCvHqAMAIp8bExhaWsG5uvRQiEwVmmWXypN5AEb57ojACSIAoMkZmdOyLEKddC5d5Xt0kQaI6YWcgmVXTXpgH+nffZnaVr8KiwsDAHouNeO5XCsvUB5o/c22kw4AALBhUZGK89tjK6/7li0AWK0gWATu+gBAecFiFupe5Qi8YOGBtTS9PzQZMO+uTWHF/7W6391T4Wkq+3JJwndJPAAQT/VzS3tNGSSTWC2Ju1NWrC/K5wEAXPqEvr2824ggllC+6FzOyqVp/5QBMKqXfh7WY/OhOft4W5qfelwavbjYYic/no8N+uttL1u78M6L4QBgPZs8bkZWgQCst9dLyyIej3FRcOaUP6+8/W7OJQMAgDjEf8nqiAk9WM2F3L0aAENNiarVM5dFThnmorKY4vemrvggP8thg3bztssexuWZ70aMuJihifCJDJRwFzOXLsm8oAUAe/m3W84O9i8AWFNjT2gmDowU/1J0basYr9Hvffv6sKLtzz79Q4rdm+MI3e46UaNzKxMKi/+5qp78So87e6tcReaMs4VXKikALTmaGecRNKYXCwDE1XfUANPhQ2VWAOIeOO3/lHHvHpjyxJ7/W5Ba1jtokA8Baj70zp5Jk/auPcFl/nh48qTdkybtWbLXSAGIi98z80LMPx+dPm3fK59U9J0Vfb9fdTuiuCDnw6WJKRFupdtjVx8g4+/t4qgtlciDFk6IUKbGTv7i18cOlXYd2u8BFQEA1s01mOoyqygAAKMKc+eyy40CCPHH9o7ctGtFhvXyqT/u3rTjzk07Jh2zF91rViF2M5Q8fzpjwvkKl1CfabUt5oQJIoa347ImxuYeUXi96itmAEDQLTueEnM47a3SejGSiJX64mdPZzyYoPXt6vu4AgD4XQmpMYdT3ywWUrOyhh5OiTmcOjPP2kjDQgPp2Jar3Fx0ZRU3hCdqMiafq8zTU6FEeyZeX9X6FTkiCyKnl8U+Ov7wrMMuc14L9GUAiPieNwY8Zkx/ctShOx++mDyo76opChYAiPT+V3uGHT83esgfg++K3Vzs8dDdLbn5U/br2cHR+2PmF+pT0v91x/6o6P2DnskuEABAPPr1fuPL06eMODD4/oTzkb2WTXFhAYBIxs/vPTT78qMjDj20rELds+Z+CBGPWTjgMS7r+TEHhz2alDyg97tTXRzlpzW3iwS76dY+ffz++/750aX7sv9TsWA///bKudH9K1RqKkQqV3ndRnpq1ZcUFBcUVpqwVo+Qfc5bgwe+8pcVsWWPdL13ZtdXvPmk3y5s+KG4nALVFu4/0fv1sd7fJRYqhgb1ysnZnE0BAHjeKoi6dPXoptcWFOduWnrVlgzlBQsPHAXKCxYLXxu6mCB1D774s3+MHIA29erJwm59wtndBQIAWEyCwHNmC28yg8XMsxLW0XWUMjh4iP7Ks4llZRRIgSaXeshEAABSd1fvqoocDgCASFWhcl1sBQUAQRAsjDzQjeZc1hr5JlVfqPmkxsoBgNEQb/LqKiegowAAVEguN1QCAG8+XyWMkYsYsAoAnEA5oA1cM1BzrMbKAXA6/XmLR4icgIEKlJopWAEopWaBNumeQUPpAAAAIQSEepVvfclHL5QAAGiuzLpQ9w1mwPy7E+fbkuT2vHpowZ8tu2VBTUmlcZUAwKecqzSMlfsyUAjKqL705NvFBVaAyoqdBw1TB7lLtxsMQM1mqvBz7Rtpzcwx7l5xeleLVgkCtZgpWClQajUL5msZtx5848+Dtpemsr9OWyYEyxnQ84y8eyicX1eYY6RwtXDvPxGjbdV/Vtm/D5xalXe5QgAo/fWQYXJ/NynoDQ2t0/b51tsuevlEaSEHAIaz8aZXu7mIQMvby7+9chYc7N/qtVABbnhOOq34Z+2MfxrPIEK3NycO8ABUW/7nN+f+/AbkQaGvroiekfHnh6esAHzSgZyKlSFD1VrV3e6XDp6z3dujVXlfrVdOvT9y7mQXHzcoPHXpg/WZ2Q7aOkWM2D3otf/4WAEAiFjOJ9KW9AQiwWpXriwzz1ZRd1MF8Lo9WgpAAj1VUJGTTwEAWA/XIKv2v/qa0MeqwpT69IqmhzOh5psUrjtZ1iynJy6nn2hCOrVd6gV6U7Nu20mHUgqENDlhIf6Do9O2Gm6+I0JtK7/1+MWRDwAAgIhIJJIJ74+80wIAwIhZ81lgAYBa9q9JCHsl+LXV3YP8JZBb9PH8Cz+mtmJfCBI0NmLpS77dVSBQkLhKmf0EAIAQhtDafHIcpdX9volERLma6zyeo0RMHNa8W3G7KBWu7UeGse04O/m3fap+OTehQAgDzZ+BBiHkxAFe0j3k8V6G3/aUVFIwXr16OKn3k2EK9lQlD8Bn5RzI7Hrv4+ES36IfY82156iC2EtrYy8BAOvmN2vdgIf6ZW84a/8MxwnWspyPZyZcvK4S3YR7HtePqWH93WVFJXpbfdnF082rsjSTBwAmwF1RUqG3XWG4e7p5ludn1mSGdXMNAt0hO43VDY3ZETEAPAAQhnTikyXVVumVIe4SgBb27WvVzFgt5l1vHn73zI3FZckpXD+/cD0AsJJ73h6+4in1r0tKLEA5HsSi6mAmEjMC15KCJm5+81Z4579x4sVjFh7IwIUjP5LbskMFSmpnRBWJai+DqJUj8pqQzooItVKHzTrN3S5HmWVFxHa0MSwRBEod5L/FGDe1O6etMnbaoxahTst578HzvHzg1D5PDFWpxIxbeOjYfnxmhqH6zEcNx/aXBIwNUsVmx9V2VQoMX7N9xKQwEQFgxKyIoXWbv01G3tVX6SZlJRKGJQAAQm5Zmth79DCljCEuoaGzVw2aENRo1ZO4DVuxd8+Rzx8Jqy14arIK3j5dgsSMyiPg+QHqK2l5ORQAqNHKq73UgWJG6Rk0s797Qmp+cc05jnFRdBEoI2YlLCNhiMP0AQCIbLSPzI0QdzfVMJnlSiPnSiJmiJQhIgBCGClDJEzjdWojJ7jLJZ4skTJEVOfTOo4nMllPsS2dxir9fOb5ZEPUsKFuTa3DE5aRSBmplJFKGUmd9Qp6q44oevaUyKSMtGaPNQ+vO5/IDH/YN1RBWJVq8sohH01RsgDAKJ/5bszWZ11dGACWkYoJz1MKAIIxMcnSf2JQHzdGEeL36F2iyxe1tQeQvfxQI2fyUISq2Wv5ZxgxS1gJwwDI/L3uiZZU70nBmJ4JA8b6BMmILMBn3CAJqclnfCLEPOTfw42R+agfvkeReqHS0axszd0uR0jEGP9INyLycL9vuDw3Xc85yH9LicOHDFenxSXfcMmnGPnGpu/mxSga/hJCCMCZa/B8ZtraTeLnp43YMl8sVFSd2XXmq9PXThK6S6VZnOvlP8tqayhCXva3u9Uz3x4/RUGoxZj6V8L6hNrqu5D42+WUBVFf/yRmCX9q3b5VRziqy9+8VvnisyO+mSMWKqtO77x4JJdCYyGMECrwvFDnzMnHnj5/+N7+256PAkPlqcR/FsXbZu4Szpw7f2hs/23PDaDGihMJscuT9LXZ4YpyfquMeevpxySEXo376/ETGt5u+gAA1JzFqr8c7hJCuJOZBd/pHOVQ5Oa1M9ozwLYdXUJjw0Awls04VXzR0Zfo2dzShN6++0eyIqB/J6XNLarOa2mR5usufhtGeCoI8NqSJ85qMhylYzq9Y3vOx3MXjklbfjC78clDmf6v3RX3WvUftb3QAYCWFGzc7LNq4z0zXAjhqzZMOvGftGbWAKn10Or4sLd6fXO0v4q3pPyduXqvjgcAQfe/9VnRiwcffVnECnzRxbx3l2isAAB87Pr4r9/qvemvCJXZcHZHwrJfTbU7zF5+rGeyPo2PeufQfUoRWP6MHz4731Be8NEaz5WLR55ezRcn5u3JrB7EANSyb21S9Opeu072LU24+nta7XLroTUXwt/q9fVffVVWY/yepCXf6R3V4Ju9XY7SSstgn9k6emQwU3Aifcl2LQ8A9vLfIow6etaSh8R7Vuwrvn73scEDYkLprjyTnS8ihACAREQOvmGRv79/fn5+262yjdK/lHwaAHrV25wGEe8JwzeMLHxtYXq+s0+GyijU2wbJfzie+/utMZyIUQ98cdX8JwJyNi94s3auG9TpMC7PfDc86ru/Zu1xPIKjxYjvvXM3LLwTjm5asOrgDQP/iPu4T36flv3S9A/im7H2Zp0iEHICzluDd4RRjRrjdnnf2QJnj+63IEFzbuML03dGxwS0wXg4dAsx553a8Pzm2PSq+ld5bNduXc2Xdqa20bUFQk7iNq3BI4RuN3iKQLcb5+1kh1DTKP3l47fEKP3lTvYaIXSbY7t4BdywSKVSabVt+ADENkp/VkkeAGystzkIOeA7SB2zsNf5TekxC3vp8k1O8zp9V15HF22ng6cIdLvBJnp0Wxu/JebY4gRdvlHpL7/z3X5O81qXb+zoou108BSBbjcY4BFCtwU8RaDbDd6DRwghhJxQBwT4Nm0eQAghhBBgDR4hhBByShjgEUIIISeEAR4hhBByQk2aqrZHkLRPVxkAJGaYUq82/gwQhBBCCHWsRgK8pyu76Cnfu/q71C45ekG/6pvCsgbmh+4UbCNhEEIIoducowDPElj7coCt7l7rrv4uni8HPLc6h8dHgSCE0G1GzVk35KZFG2586nSmRPa5l/8eVzVPGnloNmo3jia6eehOt8VP+TT4tXe/Kdp1rPKm1sx4P/n5ltmhuce/++SdbYmVnedyQRw4ft682ff3FHbNf2htIj6vCiGEan2XlVw/utcXp1DODgzXiMTtkCVkj6MafHQPu4+siO4hv9kALxR//9xDe3s9/tEXs588+eJnqZ2lzV9594yFQ3Pf/tcbfxea8WmyCCFUly26j+gRVTd4s5Q+UKWZWZIfZjHVfmxDbtrU0MiOySUCAMcB3k9t9+LLwVvNwVVmZBVxo1m20U+yw+5Y/ElXFwYA+OQlv23ba22N9TeASFVKcUnypWKM7ggh1LAbquY8Ibvcuuxy66LmrM+XFpxUuv4nJzXaoHuoshQb7TuQo2FyOUV2o6iDt5q3ei9/f3FxXmGjwZQ/dW7V0B2Lh/3xx6W2bcynuooqwc3VDQ9IhBBqpg25aU+VFf4nJ/VPlQcArM7L+P1KQrAFx151DEc1+D0nKicOd61/7UUp7Dlxc+3zNVg/f19tYb7uuqBNpF1nDJw42ctNKuiSsve/ezG5gIJAOQsPDM/XuxYgLp7Dlg4cNUwpZoArKol9/8yfp83UXjqNErRanYurKwPQWW4aIIRQ56LmrA3eX6+9Pf9qYPcHqjQvleQDQJ5Y0q6ZQzUc1eDj043b9pfVX75tf1l8eus8jFKo0JSJvIJ8pXXyIR814MlHuL+m7377ngM7LnlNeru72uF0PMr7+owLLfxm/K/LRuzatMUY+oC/J9OSdAAAgJEGdPcXZWflYnRHCKF64hRKANiQm+b4Y7ZG+/u79X0uuCc20XeURkLepv+VpuSY6i5JyTFt+l9pa62eT//t0wM+c3fujYs7dPaH/wtnABjvAWrhVHZyoQCC5eruXE0v7yCZozQEsyAoFH69Pby82crfz21+K1MjQPPTUY75+NSh+DN7fphi+nLd/jy8A48QQvXMDgwHgGiDTs01fqOWJyRHIm37TKGGNT6TXXKWuWewrO6frbn6fk8uHJf3wYOzfsur6dTGsGJGOT5m/nABAIAwUlMJdXgZoj8Y/3NonyGzY0YHuihBl/TpqZ9+qeQAmpmO7tCcIYeAkQY+8ta3Kyaf/79vO02/foQQ6iw0InGcQomd5G8JjQf4974teu/bojZaPeU4jhjKSup2WeetQtXu0x+8X9zUAGvRJW48lbgRAIhy1KBZS3p0/+3MZUvz0wEAEMxF+RpepVJikxJCCDVkdmD48dTztko8jnTvzBq/Kx0VNeD777fW/ouOjmrF1fPZmVnioDDfOtkQii+UiYaG9gkRMYzYb9KgmWu6e9e+TTmTHjzC3V1krEjCsAwAEK/po9/6MsLPhQAQkYQhAhVoY+k4IPX0UJRrNNhEjxBCDbFV4gFgS/blpjTUo47SeA3+/Pn4J5+c3jZrZ1y83eXg6unGANRGVONf578PHfjgVw9OVlFdSv6xtTklte9R44XPL0euGLHkKTFDhPxNBz/5srJ0Z+KJAVHPHewjZam1uCzu/dPp1sbSsY+IRSy4ePl7iHI0XOeZXg8hhDqP2YHhW7Ivh5uNW7IvzwiJ0IjEtilsOzpf6DqOpqqttWz5op49egBASmrqiuWrWmfNjPeTX2yd060kfu+Xyz86nt9pbngTZa+pS+dMHxFi/nUeTlWLEEINUnNWW4xv8N1e9SILan9NCvAIIYTQDW548Ixt/vnjqeeh3ly2qEM06XnwCCGE0A00InH9jvTYx77zaEq3M4QQQqhJagfKd3RGEAZ4hBBCrae2ZR472Hc4DPAIIYRaUxOns0VtDQM8Qgih1oSt9J0EBniEEEKtqYLF7tudgigwqPsNiwTeUH9hKxJ4A8Mqbj6dgwe+v/lEEEJo7H1PdnQWnMrY/EwAuOri2qahBDUKa/AIIYRa05SMJAD4oWvvjs7I7e6Wb0jBS2+EUIthQ2BbCNJXAcBffqEdnZHbHdbgEUIItT6e4EM5OxgGeIQQQsgJYYBHCKHWobRahhbndnQuEKp2y9+DRwihjqXgrENL8u4uyL6jtKBEpoj1DuzoHCEEgAEedUZE6tMr0qfsQkKh0NFZQbcK4hbep7sl43y2vt0OGinPDy7Nv7sge0hJnkSofuK1iOJBi32fOwsM8KhhZIBS5G7hjlgobd/1uvWc8vr0h/yKfnr/QkK7rhm1APGOch3hYf7jb5OufY+T+sQ+A55+YTp/6sfVn5/Ob8tJ0EWCMFBTOKowa1hRrpznbsyGgAEedRZOHeBde/g/8aBXL2/WotHG/p6z+6KZb2FKZMBTA8YXXn7/D2Nn+fGyHiHvDxN/vz89rqXb5BBhRY94SEP0wvGyemewhgzr4vK41Ti3subkRthXAuT3MgAAFqPpqRJO37T1sr4PLnj+noodr797MtdcvYwJ8PjoM9dzc3L+183/h+nWt/5dfJ4DAGbs8m7zh1zrpstdLJ6+oDL41a7vjmMJAFh070/J/7OJ620r5I45jvIjHuH3yxTLnFc0mc07rkifmaFL5MXTPtY3Zee0IcLeMcnrudCqjKOm+PbKip3jgZYe/3Z20rkZS599a3rla5tTDK19wcFS2r+s6O7C7DuLriqtFnsfEzlRgGcpxZ7wtzQnDvAyj0enduH3pS6Jsyh7BT0/JbQ8L+VIWUfnqrVIVXJ3vbagrc4llLe+ncuxlLbwrE35TXm6z4EEuMrXSJr+NWm/MY8GJH2xOrY2ugMAtVKrQK0ctVoo5Widuhm99HX2gp1W25mcCtRKoeSTjAc2ARvosW6drGVZb1X0XOfKT2uj3O9vXfmbpcZ2vNCwfzwAX568ddORqHfGjfxf6j5N60R4QmnvitJRhdl3Fea4W0yNfr59mugJpRJBEAt8zf/89a8FCV/zoslvSfjahdVvUSDj732iHTYHtRHnDfCMSuolMRyON+otoE/I3WJxIRYAAM8RPRcP0X74YX6eAEDYqGl9H9Kmr9yp4wgbMiJkyj1uXhKgVkv6iZztB7U6EA17rv/UCNtFbO9PxgEATf/14sfHLBRA2d3viYe8wt0ZXqf/Z2/27kSLAKTrQ72n+eryJEq/qsoEi7x3CJP4S9qedN7R2cbFw3dqX7873KVizhifeuWLdJ0RAERd5ozzzzp6cWcVBRCPGh51Z+GFd65YIvpHL+oqYQAAPNY+HAxAS68kv5ZQZacmz4gka/zY1CraVc74spCqNa+v4vUAQNin/WQBBisnFYWJiNlsWa+xplMAInotQDaKAQBIrzC8XlVdIbGlc0VLw2SMDwuXq8zrtbwByFhvl9nVoUuxyw0AILFcv0hLeQo8UGu9zbaTju29wMiusku/x2mv/5aVWilwHAhWynPA1XmT8tRy/T0EylMrD7wVmnyWJZHPhrwdqN/Dy2LCxO4W44/rinamCQBA3BSPz/J6sL9IbOVT/yzdsE1XxAMAyHu4v/aq50A/hqG05GLFxo808ZUAjHTaJ0FhP1155wi1pbnCreTJdXqrnfy43Rfw/VwX22M1P/9dDdUtEBXFFBi1y/+90mXCAImc4zNiNZ9sqkw3AgCIAlxnze8yKowpv1R5uAKgJtYQD8WTr3hNjJYordylv0vXf6nNddhA3bztsp/M0AXdlo9mCACXVvrCq2U5AgCAKNLri9ekyZkkMoQ7FXDA1aIAABUxSURBVEvD7pBJThcv+8agI5LJHwbfkVJe0U3Z3Y/lU8o/XFd+SQ8A9rbX7n5xcDwAAJeZcK5iZO9w0T7NtVIgnoMWrH0qunTvm2/uz2hakxcBCK8qG1WQPbIw28tkaNJ3AABAJAh1Ymd1QBXT+mG1+nX9sCqpDboNvWV7zQpCW9esKQBPCAHo6HsvqOWcN8ALZVUJRb7jH/cTjpWn5JhyL1WfrMrPlyTfGzAsrPDnKwJxcR/c03J6k54DIErPiffLkv+TsDubZ9Xqf/2rS19PXayGi/0q7gxh+k/td29RytpDJgpUECgFIHKPSdO6mH+9vOiCRRYa8NLTYXcVph4uBQAQl2q2/Vb+xCKfio/TvozquWCIan96hd1zLpGqnx7iz1xOnX/CwHiFLhoccld+0gEDsEq5H5hO6ikAACMPVPL5OgsFevni+acT2SGDou6rSHwnzSQAUEFo5KTFqKyGJZUUROJlvtIHjYYfqnND/Aj/RpFFS5j/85FPd+GW6iil3IY83adA7uyieKBeOgqLYVEFFUkk73pL7jcZf7HSQyW6I0CGqBWTrMYFVYIAINBGTwn107EtVqrkxgrtDUVFTVxaoqnQCLTMfCGZb4N7vUTqDxdev7pVy/ScHrTmGdcTb1aUADNspu84U8mcJ7Ulcvm/3/Gf94D5jV1WgYhG/btL4NncqVtNRpF47Is+Y4eIEw5Ym1trq/wj/+G/QTLM9/vJlnmvlWUL1S0QAMywZ3xGVpW8+ri2RK545j3/2RONc36yCIS9+zmv6PziFxfqNB7KF1e4M8m2vLMjZvqN40sXP1WVJ1U8tcxv3kPm136x2M0Paa3toqc+vPLAx6AY6f/Ng9evQWI5uKbk2Cthj5bkLFqpWrferd8PhpMcABB/leWDhdklIHn4naDZjxhe3m4W7G2vvf1CGzseBF15FRuslBKoc3XJGTUlmuJSnbkJB0+ormJUQfbdhdn+LXoYmogKvx/8bwu+2CwCIRaGtTCMlWEtDGtlmOr/WdZKWAvb0FsMa2FZa4PfsvOWgO3ztzjnDfDAG/74Mq3ybu9hj/ac6imkH83efqCqigLVVxy/EDA9xnXPlQppX3W3As2OAgoAIAhWynr6uwQZTSVlmh/+o7ElQ3lqBYGjQAXKcdfurzE+yhCh6r+JFh5An6M5r/HuEUwOl1IAsFoEKoDFKlgs1GoRWBHj6Gei8O7Sz1S0PEtXSYFotEXURcoSACpWyj0NBlsjPBHL/CXmC1oKAFQQrETu40ILckxmvmmBhY8zUQ4AOP4yLwkWA1THUJpu4rUAQIVkCwwXMSzwHFTXiRq6ZuDPmygHwFn5ZEEcIAKwAqVgAcoBUAALbWLFuYF0AACAEEKFeudgo/7rpXoAgPKy5ZfrvkEinws78JxtS4S/3rmy+mTLgj81pxkStQAgXEk0GUeIvVgoAWnvnhD3ia6YA9AaDx63PtxfJt1lNQK1WEHuJY3oLlwtsB7akHuwRasESq0WAA6AAmehdQKycHxNxnHbS7PxZAI/yk/EgEVgxCEBkPSVLt9EoUD3dzw/1Hbrg5X06gHxn1VdqaIA+gMnrBN6SaVgMdpbL9tq22VrHrfUa5uiZmqhACZqMlPBIphFRFI93QbNOKcv4QDAmpDMTQ8Wi8Bssbe9tpTq7xfOwfFQU7IUyPWRiVYlbn4jsbENqsYRtkoiLZIrvY2GlrW314mdrIWtedFAQG34repAy7LXXteL4hzBKUxQ45w4wANQvf7U3sxTe0Hm4zVtZtgjeYnbLvIAQlqsRvuSV383k8sdioxTmbZ7dVRf9r//yh4YFvDvsVK1EkoT877+viTfwa1FlohUntMXudk+wkqEdNqS5izi6yrnq4qLbRV1F7m3YDpioADERyWnOk31cqXClzPur70ByMoC5OacJtdl61SpBQp1T321p69zZfpzTUhHuPYSWn5xbzcdSilpRqWBJn+ZNXdH/dsAzc9QTX64s0VPPAsAACIQidnRb4QOsgIAMCLGfBEYAKD8kS8KA59yf3q+2t+XhQLdlvcK92S1YqsC8RvRZdY0ZagCBACxUsQcJQAABBgGai9+eP7ajQmRiPL8teXAEtbhCjpouwDgWv6BAqne03a21/ap+vulcYQQoDcx9iPXRZXrErEjJELBWaM1hTEl+YNL8zzNjd99r/XY6MdM+LxU1Ak471EoDuwyvqv572NaLQVTkeZMRuAEfylz0SAACAWlx/O8h9/rK1ZX7rtYGx9oSULeloQ8AGCU7lPnho4OL91+yf55gqdcleabVTlp11V1mxCdrr8MYLyVEk1ldf9+uavCQ6/NEwCAeCsl5TqT7fJB5apw1ZXn1XyNdVH4gumUnX7C9S8zCNSe8hnSiW+pCTqdUR6gEgN0cOdwAADgrdzBtVkbE24sL2u+butq3VYAYNlhc4LnPKo48KHeCpQXQMRWFz4rJjzfkpImKuVzr7oUr8lZeoYXgPR5IXSJrYcDBUGA2qYglr12HcRzhGWvLQeeOr5h08ztak22bFMAhgFKKXWwvS3GKD1ceV2TGuMbYRCJj/sEHfcJIpR215bHlOQPKcnrWalp9IsiQQDHF1kItQvnbefhBUnvcUHj+8pdREQZ7DWsu5CXZ66uEFDLudgq7xi1S0Jpcs2FOePt+/o7Pe/1ZwkAI2JYQusOd7GYBWUXmUrCiEWEJQAAQpEum3Ud0lcmZYjc32vay91G+jQa3Ymq/5wvN/zwzujA2oKnZo56uqt8RIxC6flYN9XV3LJCCgBg5qi7m8qbJQqV+l/dFGm5ZbXdgolM4i5QImLELCNmHKcPAADsUBdGBeAqFUWzNLuxk7aIgIQAC0AISAiISeOXLWYBXEWMOwEJue6i0SBQEDFhTNPSEXKTM0y9+kUrm1qJJyyRSKr/ieuslxp4AxF37cpKJUQiJg5vkdjBW5JSycCxykA5MErphNeClkyUMADASCZ/2O2Dx6VyAsAQiYgItsq0YE1JE3rd49ZDReQBynGD2CuXr43KtJcfahJMbuJA9zr5J0TMElZMGACpt2J4JFu9JwVrdi5EjlD6SUHq43JXv5o0eEtyKgwYowpTEalace8wUeYlc50hCDe9XfaxIiKREAlLgBCxhEjE1b8M+0i34aruKiJyld05UFyQbeUcbG9LiUL7DXTPTkq74RJRNvj5RR8926dlFw+UkDRXz+3d+swact/kUY9+0GfIUZ9gg0hs7/NinOsGdQ7OW4MX8gu//oWdfH/Pd59iBa0x8WjGjqRrNRtDpjaPk2ee1tUGO6GkdPcx5eQX+k+QEWq1ZJ3N+TbtWoNi2tH8jKdC33mPZYlwYXv8F3ECNZbv2C57/OGeq59kBZ0x4fDVM8WNt1sTQgX+ujOncOFy5pk7QlZOCAOzISEr7ZMrtrH2QlJq5qk7Qlc+EApmfXxG2mdZ1+okfHnpYX34C+NixIQWpiUuSNTxdtO3rSSXSFYFsP6ExlWZdzsM8CKp9D8+Yh/bH3LFz24gcNaFBeYUh9t1UWu53EX6VZBMBHBKo39XX52DcoPlF4V0aaBEDsBbLHMKLVcdJWO+8OfOgvlPvxCTteFUnt2RxrVIr6dDdz9d/UdtL3QAoGW6b39Uzl/RdZKcEN68dVb291mNpnY9yp/4vDBoltfaH3yVAp9xqvw/f1sEABAsB7ZV9Hkp8MdpDEtpaUrVxnW2MWL0/NaCn1/xfnt7F6XFevFA4ccHr/XvtpcfLqHi20t+c78JdxGB9WTBv97WGqu0X32ueP3l0J3zaWlq1d+5Nb0sKH94c0mf+V5f/OxTfrny76xry49/URD6itf7232UVi757+K1u+z3sGvJdtkhkj+3OehRX9sfLp/tVINg3TEv6yuHZZp1lZm8pmtMABSf1Xy40ywAgL3tbRHGvddTL48U/f3F0bLrfwKsb+QAP3qopPFjqjHlEtkfAV3/COgqokKf8pKYkvyYkjzb01FrOdNQeHRLI2PqzSko8AaGVbTdKlsrfduDnFs4J6J6RM83oyvXfFpY7Ow/RUYkWePL7Mk3Hb41tpS495o6798TfQp+ev+THem3Rp5R4xjJ5A+DI3/LWP5XG+1T0mXE1OUzo+HMj6v/80/u9ZGcuA5btnlC3vK3vky+8fbFTZ1GavgZdTEl+UOK8/qXF4kE4am7HiyQK28mQYRahfPW4B1h5IMGK7JOZpRg/Oh0aMWl7UuXHezdx7clY5TQ7ctalLB1ya/ns/X1uyCwQYFBlsyDmW0y6yMAFMiVO4N77AzuIee5KE2h3n7rPULt6XatwSOEEJ5GkFNz3k52CDWN3Ft8x/uBcm+xk7121nJDCDUR27V73xsWUWolTBv+kFor/aeuXASAb+vlH6Gm8+ir6PmC15XtZT1f8DIWcU7zOv9QVeMbfwuWW6tvF55GkBPDJnp0W7vj/cCkdUXGYqvcW9z7dR+neW0sbssHpnZcubX6duFpBDkxDPAIodsXnkaQE8N78AghhJATIhGRg29Y5O/vn5+f34rruJR8uhVTs6dXvQ1BCCHHbGcnPHsgp4Q1eIQQQsgJtd9EN61+jXxDw0D7tBMghBBCtwSswSOEEEJO6Baeqra2SQDvoiGEEEI3uIUDPLpJas66ITct2qADgDiFcnZguAbn0EYIIWeBTfS3KTVn3ZJ92RbdASDaoNuSfVnNte3sKAghhNpNxwV4xvvJL/eeOvj52ul93Bp5iDpqZbboHm42pknlI3pEjegRlSaVh5uNX+SktvoBwVIabDG3dqoIIYQa0XFN9ELx9889tLfX4x99MfvJky9+ltpWT3JEN6gb3WeERNia5WeERBxPPR9p0vcz6uLtPMq6bpN+ozIlsq+6+AHA86UFAPT+bv14gtdxCCHUfjq2iZ6rzMgq4liW7dBc3E4ajO4AoBGJv/H0BYDxlWUNfpGldHNOShOjOwCEWUwr8zNX5mcGW0wAJMBqaZX8I4QQaqIOvgfPePn7i4vzCoUOWbsHz43QVQ7Vt+1ztzoDBiDKoHuzMOd46vn60d1mv6snANyrbTjAP1CliTAZAGBEj6imD1goEYkXBnS9v1vfHIn05rYAIYRQ83RwL3rWz99XW5ivo+2zOjVnjTQZepv0vY363ia9n9UCAF928Yt1cW2fDHQINWf9Iic10qS3/Zksc3k+uEf9DvMXFEoA8LVT1Z5Zkg8ACwO62r7oOMbXthN4cdbJ5cXHXdywfz5CCLWzDg7wQoWmTBQR5Cs9c9XcFrV4NWftbdL3Nhp6m/S9TfoGo1eB2GkrlyylD1RpVudl2P78xtN3n5tnglzZYFELdb5V/355mMUEAHtc1U1Zr0YknhESYbthb+ufX7/BACGEUJvq4ADPp//26YGRa3buXUKAS9k2Zeq3aTcX5704q612Hmky9DbqfbjGb/0WOWngUXPWzTkptnb1yzLFs8E9Gw2xmRJZmMX0QJVml1uXBj/Q9I5yGpF4amhkbVUeYzxCCLWzDg7won5PLhyX98GDs37La2EN3rsmhH92NbW3Ue/V/JHczleDv6HivjCg6x5XdVNi8+de/qvzMmaW5NsL8M1lq8rbYvyG3LSpoZGtkixCCKFGdXCApxzHEUNZScvb5/1rWt3v1la0LIVCsaSlK+9gjT5fp4kV91p7XNWr8zJsrfENarD13jFbjD+eer7pPfARQgjdvI5uos/OzBL3D/Nljua0MMTXDtr+xtP3XxXFcqHZ6RxKu5AvluSLpXliSZ5Emi+W2v4sFYnbqe9fG8iUyD738m9ixb1W7YeZOrfkaxN03HrvALbMI4RQ++vYAM+4eLvLwdXTrX5Aabb3fIM/9QqYXFE8razIXlfw+gQgcoHvbjZ2Nxv/v727CW2kjOM4/kwyM5mkm2ZJ2t006a71bXdBEBEvHhS8+XYRhAWR0oUe9+DRsyfx6sH3t4vgSZEK4ln2UlgVRFrXVbeQZMya1HS3aeZ5Jh0P022zkzQbY/M2/X5OYQIh5PLL//k/z/8JvOVokZJh+nnvB3/BMItGrGwYTTEWM1sGcb+ObZhZJdvH3Rz56j0AYKBGF/CRU6+8/+lrD9788esPvvjFPZKPvBWNfpSZ+yydfXareqli7x8M62J1Knn5zMN56eSUzCknp2ReOf6LtKsWZGOhbb3a1TRbN4vmXt7fqf5jJcN0J39Y23fJ9GLVfq5WDQT8/up9H6v0AIDhG+mo2uXnPx/AB7uatpLKfJPKPFG/dalSeqZrb97WzduR6LqVWLcSgbes3d282gv+/Rc5KWddOa+ceRWcr94U2k3DKBpmwThY5y+YsZJhNrSJudTn2+n0YtW+uFl+6/SZ1iBvatr/WaUHAAxZaK+L9YRYTSRXE8kF2Vis2C/987fldegCdNlh14hErsfi12PxwHPD8+bu1Pp55eTkXumfdWVWyaySj4u7dpN5QlR1o9AW/EXD3I6M3ZDenxInbpjWfZ2C3F+lf7PwO4NrAGD8DS/g77nle0D+NK035hbePjV/cbP8avWvwI2ofWyhV5q2YVobphV4HhXeaSX3Kn55sNQ/p5yMqzKuenTnrpaBJ8RWVC8cRP7BP4BadGR/vHaFeOeQdvvKdGapYl9o1DnUDgDjL7QVfMBmVH93JvdxZu6FWmWpYp9z6v7z0tGdkWsKrWjEikZMiGTrc02IWVfmlGzp9Dt5JXPKSTXdVNNt3yuwHYk+fe6x+ojq+8MOyzU1bfnsef9Q+4cb6y/f/wjNeAAYW8MI+EFs9u6P1LQvT858dXLmye3aUsV+6nbN1gd+CN4ToqybZd1sv4Y13XRzsqXB72/xk46naaNKd9F1XN3+ofYLjXrvzfioN7nnDQFgUh2XCr6VJ8SVqdSVqdRDzk5hpGPsqlG9Gtd/jk8Fnid2myP5Pr2o6Mbr+Qf+UzP+xa2KEOKPtqYGAGBwJmZ39yD8FovvRMbxFxhh+d6LlenMmpUQQnxyYy1zr9nAGVf5Q3Pfm80N48sBAIQQxzzg0R+/GX8tFvdvkemS8f5lM0KINSvR4010AIAjcRyX6NGjLjNtWm+R+f7XH7p/zrVYfPnseXbkAcAwUcGjA79f7vfOD+Nn/NVEcOdgwNXECc7UAcDwUcGjgx4nz/uXvg/tWwEAekcFjw78fnmXe2MBAGOOgEcH9MsBYNIR8AAAhBABDwBACLHJDp2Nz4BhAEAfqOABAAghAh4AgBAi4AEACCECHgCAECLgAQAIIQIeAIAQIuABAAghAh4AgBD6F6yg91Nh2AGIAAAAAElFTkSuQmCC;" parent="1" vertex="1">
          <mxGeometry x="78" y="80" width="672" height="390" as="geometry" />
        </mxCell>
        <mxCell id="_2NTkBsCXPf4NS_J_TxI-15" value="1" style="ellipse;whiteSpace=wrap;html=1;aspect=fixed;" parent="1" vertex="1">
          <mxGeometry x="1170" y="80" width="80" height="80" as="geometry" />
        </mxCell>
        <mxCell id="_2NTkBsCXPf4NS_J_TxI-16" value="2" style="ellipse;whiteSpace=wrap;html=1;aspect=fixed;" parent="1" vertex="1">
          <mxGeometry x="1170" y="220" width="80" height="80" as="geometry" />
        </mxCell>
        <mxCell id="_2NTkBsCXPf4NS_J_TxI-17" value="3" style="ellipse;whiteSpace=wrap;html=1;aspect=fixed;" parent="1" vertex="1">
          <mxGeometry x="1170" y="370" width="80" height="80" as="geometry" />
        </mxCell>
        <mxCell id="_2NTkBsCXPf4NS_J_TxI-18" value="4" style="ellipse;whiteSpace=wrap;html=1;aspect=fixed;" parent="1" vertex="1">
          <mxGeometry x="1170" y="510" width="80" height="80" as="geometry" />
        </mxCell>
        <mxCell id="_2NTkBsCXPf4NS_J_TxI-19" value="5" style="ellipse;whiteSpace=wrap;html=1;aspect=fixed;" parent="1" vertex="1">
          <mxGeometry x="1170" y="650" width="80" height="80" as="geometry" />
        </mxCell>
        <mxCell id="_2NTkBsCXPf4NS_J_TxI-20" value="6" style="ellipse;whiteSpace=wrap;html=1;aspect=fixed;" parent="1" vertex="1">
          <mxGeometry x="1370" y="510" width="80" height="80" as="geometry" />
        </mxCell>
        <mxCell id="_2NTkBsCXPf4NS_J_TxI-21" value="7" style="ellipse;whiteSpace=wrap;html=1;aspect=fixed;" parent="1" vertex="1">
          <mxGeometry x="1370" y="660" width="80" height="80" as="geometry" />
        </mxCell>
        <mxCell id="_2NTkBsCXPf4NS_J_TxI-22" value="8" style="ellipse;whiteSpace=wrap;html=1;aspect=fixed;" parent="1" vertex="1">
          <mxGeometry x="1260" y="800" width="80" height="80" as="geometry" />
        </mxCell>
        <mxCell id="_2NTkBsCXPf4NS_J_TxI-23" value="9" style="ellipse;whiteSpace=wrap;html=1;aspect=fixed;" parent="1" vertex="1">
          <mxGeometry x="1460" y="790" width="80" height="80" as="geometry" />
        </mxCell>
        <mxCell id="_2NTkBsCXPf4NS_J_TxI-24" value="10" style="ellipse;whiteSpace=wrap;html=1;aspect=fixed;" parent="1" vertex="1">
          <mxGeometry x="1380" y="930" width="80" height="80" as="geometry" />
        </mxCell>
        <mxCell id="_2NTkBsCXPf4NS_J_TxI-25" value="" style="endArrow=none;html=1;rounded=0;entryX=0.5;entryY=1;entryDx=0;entryDy=0;exitX=0.5;exitY=0;exitDx=0;exitDy=0;" parent="1" source="_2NTkBsCXPf4NS_J_TxI-16" target="_2NTkBsCXPf4NS_J_TxI-15" edge="1">
          <mxGeometry width="50" height="50" relative="1" as="geometry">
            <mxPoint x="700" y="610" as="sourcePoint" />
            <mxPoint x="750" y="560" as="targetPoint" />
          </mxGeometry>
        </mxCell>
        <mxCell id="_2NTkBsCXPf4NS_J_TxI-26" value="" style="endArrow=none;html=1;rounded=0;entryX=0.5;entryY=0;entryDx=0;entryDy=0;exitX=0.5;exitY=1;exitDx=0;exitDy=0;" parent="1" source="_2NTkBsCXPf4NS_J_TxI-16" target="_2NTkBsCXPf4NS_J_TxI-17" edge="1">
          <mxGeometry width="50" height="50" relative="1" as="geometry">
            <mxPoint x="700" y="610" as="sourcePoint" />
            <mxPoint x="750" y="560" as="targetPoint" />
          </mxGeometry>
        </mxCell>
        <mxCell id="_2NTkBsCXPf4NS_J_TxI-27" value="" style="endArrow=none;html=1;rounded=0;entryX=0.5;entryY=1;entryDx=0;entryDy=0;exitX=0.5;exitY=0;exitDx=0;exitDy=0;" parent="1" source="_2NTkBsCXPf4NS_J_TxI-18" target="_2NTkBsCXPf4NS_J_TxI-17" edge="1">
          <mxGeometry width="50" height="50" relative="1" as="geometry">
            <mxPoint x="700" y="610" as="sourcePoint" />
            <mxPoint x="750" y="560" as="targetPoint" />
          </mxGeometry>
        </mxCell>
        <mxCell id="_2NTkBsCXPf4NS_J_TxI-28" value="" style="endArrow=none;html=1;rounded=0;entryX=0.5;entryY=1;entryDx=0;entryDy=0;exitX=0.5;exitY=0;exitDx=0;exitDy=0;" parent="1" source="_2NTkBsCXPf4NS_J_TxI-19" target="_2NTkBsCXPf4NS_J_TxI-18" edge="1">
          <mxGeometry width="50" height="50" relative="1" as="geometry">
            <mxPoint x="700" y="610" as="sourcePoint" />
            <mxPoint x="750" y="560" as="targetPoint" />
          </mxGeometry>
        </mxCell>
        <mxCell id="_2NTkBsCXPf4NS_J_TxI-29" value="" style="curved=1;endArrow=classic;html=1;rounded=0;exitX=0;exitY=0.5;exitDx=0;exitDy=0;entryX=0;entryY=0.5;entryDx=0;entryDy=0;" parent="1" source="_2NTkBsCXPf4NS_J_TxI-19" target="_2NTkBsCXPf4NS_J_TxI-17" edge="1">
          <mxGeometry width="50" height="50" relative="1" as="geometry">
            <mxPoint x="700" y="610" as="sourcePoint" />
            <mxPoint x="750" y="560" as="targetPoint" />
            <Array as="points">
              <mxPoint x="750" y="610" />
            </Array>
          </mxGeometry>
        </mxCell>
        <mxCell id="_2NTkBsCXPf4NS_J_TxI-30" value="" style="endArrow=none;html=1;rounded=0;entryX=1;entryY=1;entryDx=0;entryDy=0;exitX=0;exitY=0;exitDx=0;exitDy=0;" parent="1" source="_2NTkBsCXPf4NS_J_TxI-20" target="_2NTkBsCXPf4NS_J_TxI-17" edge="1">
          <mxGeometry width="50" height="50" relative="1" as="geometry">
            <mxPoint x="700" y="610" as="sourcePoint" />
            <mxPoint x="750" y="560" as="targetPoint" />
          </mxGeometry>
        </mxCell>
        <mxCell id="_2NTkBsCXPf4NS_J_TxI-31" value="" style="endArrow=none;html=1;rounded=0;entryX=0.5;entryY=1;entryDx=0;entryDy=0;exitX=0.5;exitY=0;exitDx=0;exitDy=0;" parent="1" source="_2NTkBsCXPf4NS_J_TxI-21" target="_2NTkBsCXPf4NS_J_TxI-20" edge="1">
          <mxGeometry width="50" height="50" relative="1" as="geometry">
            <mxPoint x="700" y="610" as="sourcePoint" />
            <mxPoint x="750" y="560" as="targetPoint" />
          </mxGeometry>
        </mxCell>
        <mxCell id="_2NTkBsCXPf4NS_J_TxI-32" value="" style="endArrow=none;html=1;rounded=0;entryX=0.5;entryY=1;entryDx=0;entryDy=0;exitX=0.729;exitY=0.004;exitDx=0;exitDy=0;exitPerimeter=0;" parent="1" source="_2NTkBsCXPf4NS_J_TxI-22" target="_2NTkBsCXPf4NS_J_TxI-21" edge="1">
          <mxGeometry width="50" height="50" relative="1" as="geometry">
            <mxPoint x="700" y="610" as="sourcePoint" />
            <mxPoint x="750" y="560" as="targetPoint" />
          </mxGeometry>
        </mxCell>
        <mxCell id="_2NTkBsCXPf4NS_J_TxI-33" value="" style="endArrow=none;html=1;rounded=0;entryX=0.5;entryY=1;entryDx=0;entryDy=0;exitX=0;exitY=0;exitDx=0;exitDy=0;" parent="1" source="_2NTkBsCXPf4NS_J_TxI-23" target="_2NTkBsCXPf4NS_J_TxI-21" edge="1">
          <mxGeometry width="50" height="50" relative="1" as="geometry">
            <mxPoint x="700" y="610" as="sourcePoint" />
            <mxPoint x="750" y="560" as="targetPoint" />
          </mxGeometry>
        </mxCell>
        <mxCell id="_2NTkBsCXPf4NS_J_TxI-34" value="" style="endArrow=none;html=1;rounded=0;entryX=0.5;entryY=1;entryDx=0;entryDy=0;exitX=0;exitY=0;exitDx=0;exitDy=0;" parent="1" source="_2NTkBsCXPf4NS_J_TxI-24" target="_2NTkBsCXPf4NS_J_TxI-22" edge="1">
          <mxGeometry width="50" height="50" relative="1" as="geometry">
            <mxPoint x="700" y="610" as="sourcePoint" />
            <mxPoint x="750" y="560" as="targetPoint" />
          </mxGeometry>
        </mxCell>
        <mxCell id="_2NTkBsCXPf4NS_J_TxI-36" value="" style="endArrow=none;html=1;rounded=0;entryX=0.5;entryY=1;entryDx=0;entryDy=0;exitX=1;exitY=0;exitDx=0;exitDy=0;" parent="1" source="_2NTkBsCXPf4NS_J_TxI-24" target="_2NTkBsCXPf4NS_J_TxI-23" edge="1">
          <mxGeometry width="50" height="50" relative="1" as="geometry">
            <mxPoint x="700" y="610" as="sourcePoint" />
            <mxPoint x="750" y="560" as="targetPoint" />
          </mxGeometry>
        </mxCell>
      </root>
    </mxGraphModel>
  </diagram>
</mxfile>
